G04 #@! TF.GenerationSoftware,KiCad,Pcbnew,7.0.9*
G04 #@! TF.CreationDate,2024-02-12T17:54:23+00:00*
G04 #@! TF.ProjectId,Radio HAT,52616469-6f20-4484-9154-2e6b69636164,v2*
G04 #@! TF.SameCoordinates,Original*
G04 #@! TF.FileFunction,Copper,L2,Bot*
G04 #@! TF.FilePolarity,Positive*
%FSLAX46Y46*%
G04 Gerber Fmt 4.6, Leading zero omitted, Abs format (unit mm)*
G04 Created by KiCad (PCBNEW 7.0.9) date 2024-02-12 17:54:23*
%MOMM*%
%LPD*%
G01*
G04 APERTURE LIST*
G04 Aperture macros list*
%AMRoundRect*
0 Rectangle with rounded corners*
0 $1 Rounding radius*
0 $2 $3 $4 $5 $6 $7 $8 $9 X,Y pos of 4 corners*
0 Add a 4 corners polygon primitive as box body*
4,1,4,$2,$3,$4,$5,$6,$7,$8,$9,$2,$3,0*
0 Add four circle primitives for the rounded corners*
1,1,$1+$1,$2,$3*
1,1,$1+$1,$4,$5*
1,1,$1+$1,$6,$7*
1,1,$1+$1,$8,$9*
0 Add four rect primitives between the rounded corners*
20,1,$1+$1,$2,$3,$4,$5,0*
20,1,$1+$1,$4,$5,$6,$7,0*
20,1,$1+$1,$6,$7,$8,$9,0*
20,1,$1+$1,$8,$9,$2,$3,0*%
G04 Aperture macros list end*
G04 #@! TA.AperFunction,ComponentPad*
%ADD10C,2.000000*%
G04 #@! TD*
G04 #@! TA.AperFunction,ComponentPad*
%ADD11C,1.440000*%
G04 #@! TD*
G04 #@! TA.AperFunction,ComponentPad*
%ADD12C,2.050000*%
G04 #@! TD*
G04 #@! TA.AperFunction,ComponentPad*
%ADD13C,2.250000*%
G04 #@! TD*
G04 #@! TA.AperFunction,ComponentPad*
%ADD14C,0.800000*%
G04 #@! TD*
G04 #@! TA.AperFunction,ComponentPad*
%ADD15C,5.400000*%
G04 #@! TD*
G04 #@! TA.AperFunction,ComponentPad*
%ADD16R,1.700000X1.700000*%
G04 #@! TD*
G04 #@! TA.AperFunction,ComponentPad*
%ADD17O,1.700000X1.700000*%
G04 #@! TD*
G04 #@! TA.AperFunction,ComponentPad*
%ADD18R,3.500000X3.500000*%
G04 #@! TD*
G04 #@! TA.AperFunction,ComponentPad*
%ADD19RoundRect,0.750000X-0.750000X-1.000000X0.750000X-1.000000X0.750000X1.000000X-0.750000X1.000000X0*%
G04 #@! TD*
G04 #@! TA.AperFunction,ComponentPad*
%ADD20RoundRect,0.875000X-0.875000X-0.875000X0.875000X-0.875000X0.875000X0.875000X-0.875000X0.875000X0*%
G04 #@! TD*
G04 #@! TA.AperFunction,ViaPad*
%ADD21C,0.800000*%
G04 #@! TD*
G04 #@! TA.AperFunction,Conductor*
%ADD22C,0.250000*%
G04 #@! TD*
G04 APERTURE END LIST*
D10*
X105760524Y-134112000D03*
X105760524Y-139065000D03*
D11*
X130810000Y-135636000D03*
X133350000Y-135636000D03*
X135890000Y-135636000D03*
D12*
X158132044Y-132431000D03*
D13*
X155592044Y-129891000D03*
X155592044Y-134971000D03*
X160672044Y-129891000D03*
X160672044Y-134971000D03*
D14*
X162261044Y-103500000D03*
X162854153Y-102068109D03*
X162854153Y-104931891D03*
X164286044Y-101475000D03*
D15*
X164286044Y-103500000D03*
D14*
X164286044Y-105525000D03*
X165717935Y-102068109D03*
X165717935Y-104931891D03*
X166311044Y-103500000D03*
D16*
X111186044Y-104790000D03*
D17*
X111186044Y-102250000D03*
X113726044Y-104790000D03*
X113726044Y-102250000D03*
X116266044Y-104790000D03*
X116266044Y-102250000D03*
X118806044Y-104790000D03*
X118806044Y-102250000D03*
X121346044Y-104790000D03*
X121346044Y-102250000D03*
X123886044Y-104790000D03*
X123886044Y-102250000D03*
X126426044Y-104790000D03*
X126426044Y-102250000D03*
X128966044Y-104790000D03*
X128966044Y-102250000D03*
X131506044Y-104790000D03*
X131506044Y-102250000D03*
X134046044Y-104790000D03*
X134046044Y-102250000D03*
X136586044Y-104790000D03*
X136586044Y-102250000D03*
X139126044Y-104790000D03*
X139126044Y-102250000D03*
X141666044Y-104790000D03*
X141666044Y-102250000D03*
X144206044Y-104790000D03*
X144206044Y-102250000D03*
X146746044Y-104790000D03*
X146746044Y-102250000D03*
X149286044Y-104790000D03*
X149286044Y-102250000D03*
X151826044Y-104790000D03*
X151826044Y-102250000D03*
X154366044Y-104790000D03*
X154366044Y-102250000D03*
X156906044Y-104790000D03*
X156906044Y-102250000D03*
X159446044Y-104790000D03*
X159446044Y-102250000D03*
D18*
X110786044Y-112300000D03*
D19*
X104786044Y-112300000D03*
D20*
X107786044Y-117000000D03*
D10*
X105786044Y-123952000D03*
X105786044Y-129000000D03*
D14*
X104261044Y-103500000D03*
X104854153Y-102068109D03*
X104854153Y-104931891D03*
X106286044Y-101475000D03*
D15*
X106286044Y-103500000D03*
D14*
X106286044Y-105525000D03*
X107717935Y-102068109D03*
X107717935Y-104931891D03*
X108311044Y-103500000D03*
D21*
X115151985Y-113650962D03*
X115151985Y-117714962D03*
X137280000Y-139065000D03*
X151532044Y-132431000D03*
X107918000Y-144000000D03*
X166751000Y-111125000D03*
X166751000Y-113125000D03*
X125603000Y-120523000D03*
X134527000Y-124460000D03*
X144748000Y-108966000D03*
X140754044Y-111000000D03*
X154559000Y-124460000D03*
X166786044Y-107000000D03*
X144786044Y-111000000D03*
X133280000Y-139065000D03*
X146527000Y-124460000D03*
X125603000Y-112395000D03*
X132527000Y-124460000D03*
X158528000Y-141351000D03*
X154532044Y-131431000D03*
X148527000Y-124460000D03*
X151532044Y-130431000D03*
X166786044Y-109000000D03*
X148786044Y-111000000D03*
X126527000Y-124460000D03*
X142786044Y-111000000D03*
X125614615Y-114415638D03*
X109666044Y-120523000D03*
X142527000Y-124460000D03*
X125603000Y-116459000D03*
X109918000Y-144000000D03*
X151003000Y-114808000D03*
X124458956Y-129032000D03*
X104013000Y-142113000D03*
X164751000Y-111125000D03*
X146786044Y-111000000D03*
X164751000Y-113125000D03*
X103786044Y-109000000D03*
X131182956Y-139065000D03*
X160532044Y-132431000D03*
X161532044Y-131431000D03*
X144081000Y-118364000D03*
X138527000Y-124460000D03*
X138049000Y-118364000D03*
X122562000Y-129032000D03*
X128527000Y-124460000D03*
X164786044Y-107000000D03*
X154532044Y-133431000D03*
X163532044Y-134431000D03*
X130556000Y-129032000D03*
X151532044Y-134431000D03*
X154532044Y-132431000D03*
X142621000Y-141351000D03*
X148528000Y-141351000D03*
X152528000Y-141351000D03*
X148532044Y-136431000D03*
X150532044Y-128431000D03*
X125603000Y-110363000D03*
X130527000Y-124460000D03*
X115163600Y-111607600D03*
X146786044Y-109000000D03*
X163532044Y-128431000D03*
X126556000Y-129032000D03*
X143532044Y-134431000D03*
X151003000Y-112808000D03*
X144532044Y-128431000D03*
X154528000Y-141351000D03*
X129286000Y-139065000D03*
X142748000Y-108966000D03*
X164786044Y-109000000D03*
X163532044Y-126431000D03*
X128556000Y-129032000D03*
X163532044Y-132431000D03*
X152527000Y-124460000D03*
X153162000Y-108966000D03*
X136398000Y-114586000D03*
X146532044Y-128431000D03*
X115163600Y-115744316D03*
X144527000Y-124460000D03*
X136527000Y-124460000D03*
X142081000Y-118364000D03*
X123698000Y-143129000D03*
X135280000Y-139065000D03*
X143532044Y-130431000D03*
X144532044Y-136431000D03*
X156528000Y-141351000D03*
X121412000Y-137414000D03*
X161532044Y-133431000D03*
X150528000Y-141351000D03*
X163532044Y-130431000D03*
X144431000Y-141351000D03*
X107569000Y-120523000D03*
X160528000Y-141351000D03*
X146431000Y-141351000D03*
X161532044Y-132431000D03*
X107891956Y-142113000D03*
X143532044Y-132431000D03*
X148532044Y-128431000D03*
X105672044Y-120523000D03*
X136398000Y-116586000D03*
X146532044Y-136431000D03*
X148786044Y-109000000D03*
X150532044Y-136431000D03*
X105918000Y-144000000D03*
X125614615Y-118552354D03*
X150527000Y-124460000D03*
X155532044Y-132431000D03*
X105891956Y-142113000D03*
X156052524Y-119500000D03*
X154782524Y-113919000D03*
X156906044Y-106807000D03*
X156077524Y-117500000D03*
D22*
X156052524Y-119500000D02*
X154782524Y-118230000D01*
X154782524Y-118230000D02*
X154782524Y-113919000D01*
X156052524Y-117475000D02*
X156052524Y-107660520D01*
X156052524Y-107660520D02*
X156906044Y-106807000D01*
G04 #@! TA.AperFunction,Conductor*
G36*
X164722190Y-100381502D02*
G01*
X164731211Y-100381501D01*
X164731216Y-100381503D01*
X164784334Y-100381500D01*
X164787783Y-100381596D01*
X165075777Y-100397756D01*
X165082669Y-100398531D01*
X165365320Y-100446543D01*
X165372090Y-100448088D01*
X165647584Y-100527446D01*
X165654130Y-100529736D01*
X165919011Y-100639445D01*
X165925258Y-100642453D01*
X166151104Y-100767267D01*
X166176178Y-100781124D01*
X166182070Y-100784826D01*
X166415875Y-100950714D01*
X166421311Y-100955048D01*
X166556619Y-101075964D01*
X166635069Y-101146070D01*
X166639990Y-101150990D01*
X166831020Y-101364750D01*
X166835359Y-101370190D01*
X167001253Y-101603997D01*
X167004955Y-101609889D01*
X167143619Y-101860787D01*
X167146638Y-101867056D01*
X167256344Y-102131918D01*
X167258642Y-102138486D01*
X167337997Y-102413951D01*
X167339546Y-102420735D01*
X167387560Y-102703373D01*
X167388339Y-102710287D01*
X167404450Y-102997320D01*
X167404547Y-103000796D01*
X167404546Y-103064818D01*
X167404548Y-103064843D01*
X167404548Y-141940619D01*
X167404546Y-141940648D01*
X167404547Y-141998277D01*
X167404450Y-142001753D01*
X167388287Y-142289706D01*
X167387508Y-142296620D01*
X167339495Y-142579253D01*
X167337946Y-142586037D01*
X167258593Y-142861496D01*
X167256295Y-142868064D01*
X167146594Y-143132917D01*
X167143575Y-143139186D01*
X167004908Y-143390088D01*
X167001206Y-143395980D01*
X166835315Y-143629782D01*
X166830977Y-143635222D01*
X166639963Y-143848964D01*
X166635042Y-143853884D01*
X166421277Y-144044911D01*
X166415837Y-144049250D01*
X166182042Y-144215129D01*
X166176150Y-144218831D01*
X165925241Y-144357497D01*
X165918975Y-144360514D01*
X165725880Y-144440489D01*
X165654128Y-144470208D01*
X165647560Y-144472506D01*
X165372089Y-144551857D01*
X165365305Y-144553405D01*
X165082678Y-144601414D01*
X165075763Y-144602192D01*
X164786880Y-144618402D01*
X164783404Y-144618499D01*
X164744607Y-144618497D01*
X164731216Y-144618497D01*
X164731215Y-144618497D01*
X164722190Y-144618497D01*
X164722150Y-144618500D01*
X105787816Y-144618500D01*
X105784336Y-144618402D01*
X105496368Y-144602216D01*
X105489454Y-144601437D01*
X105206848Y-144553408D01*
X105200065Y-144551860D01*
X104924597Y-144472488D01*
X104918030Y-144470190D01*
X104653185Y-144360478D01*
X104646916Y-144357459D01*
X104396023Y-144218787D01*
X104390132Y-144215085D01*
X104156345Y-144049198D01*
X104150905Y-144044860D01*
X103937148Y-143853832D01*
X103932234Y-143848918D01*
X103764966Y-143661742D01*
X103741212Y-143635161D01*
X103736881Y-143629730D01*
X103570982Y-143395919D01*
X103567289Y-143390040D01*
X103560032Y-143376909D01*
X103428614Y-143139130D01*
X103425604Y-143132879D01*
X103315890Y-142868019D01*
X103313595Y-142861459D01*
X103234232Y-142586001D01*
X103232683Y-142579217D01*
X103184657Y-142296593D01*
X103183877Y-142289679D01*
X103167646Y-142000799D01*
X103167548Y-141997320D01*
X103167548Y-135636001D01*
X132124838Y-135636001D01*
X132143450Y-135848741D01*
X132143452Y-135848752D01*
X132198721Y-136055022D01*
X132198723Y-136055026D01*
X132198724Y-136055030D01*
X132241171Y-136146058D01*
X132288977Y-136248578D01*
X132411472Y-136423521D01*
X132562478Y-136574527D01*
X132562481Y-136574529D01*
X132737419Y-136697021D01*
X132737421Y-136697022D01*
X132737420Y-136697022D01*
X132801936Y-136727106D01*
X132930970Y-136787276D01*
X133137253Y-136842549D01*
X133289215Y-136855844D01*
X133349998Y-136861162D01*
X133350000Y-136861162D01*
X133350002Y-136861162D01*
X133403186Y-136856508D01*
X133562747Y-136842549D01*
X133769030Y-136787276D01*
X133962581Y-136697021D01*
X134137519Y-136574529D01*
X134288529Y-136423519D01*
X134411021Y-136248581D01*
X134501276Y-136055030D01*
X134501280Y-136055013D01*
X134503130Y-136049936D01*
X134505253Y-136050709D01*
X134536576Y-135999305D01*
X134599419Y-135968766D01*
X134668796Y-135977050D01*
X134722680Y-136021528D01*
X134735827Y-136050315D01*
X134736870Y-136049936D01*
X134738722Y-136055022D01*
X134738724Y-136055030D01*
X134781171Y-136146058D01*
X134828977Y-136248578D01*
X134951472Y-136423521D01*
X135102478Y-136574527D01*
X135102481Y-136574529D01*
X135277419Y-136697021D01*
X135277421Y-136697022D01*
X135277420Y-136697022D01*
X135341936Y-136727106D01*
X135470970Y-136787276D01*
X135677253Y-136842549D01*
X135829215Y-136855844D01*
X135889998Y-136861162D01*
X135890000Y-136861162D01*
X135890002Y-136861162D01*
X135943186Y-136856508D01*
X136102747Y-136842549D01*
X136309030Y-136787276D01*
X136502581Y-136697021D01*
X136677519Y-136574529D01*
X136828529Y-136423519D01*
X136951021Y-136248581D01*
X137041276Y-136055030D01*
X137096549Y-135848747D01*
X137115162Y-135636000D01*
X137096549Y-135423253D01*
X137041276Y-135216970D01*
X136951021Y-135023419D01*
X136828529Y-134848481D01*
X136828527Y-134848478D01*
X136677521Y-134697472D01*
X136502578Y-134574977D01*
X136502579Y-134574977D01*
X136373547Y-134514809D01*
X136309030Y-134484724D01*
X136309026Y-134484723D01*
X136309022Y-134484721D01*
X136102752Y-134429452D01*
X136102748Y-134429451D01*
X136102747Y-134429451D01*
X136102746Y-134429450D01*
X136102741Y-134429450D01*
X135890002Y-134410838D01*
X135889998Y-134410838D01*
X135677258Y-134429450D01*
X135677247Y-134429452D01*
X135470977Y-134484721D01*
X135470968Y-134484725D01*
X135277421Y-134574977D01*
X135102478Y-134697472D01*
X134951472Y-134848478D01*
X134828977Y-135023421D01*
X134738725Y-135216968D01*
X134736870Y-135222064D01*
X134734749Y-135221292D01*
X134703406Y-135272710D01*
X134640558Y-135303237D01*
X134571183Y-135294939D01*
X134517307Y-135250452D01*
X134504169Y-135221685D01*
X134503130Y-135222064D01*
X134501279Y-135216983D01*
X134501276Y-135216970D01*
X134411021Y-135023419D01*
X134288529Y-134848481D01*
X134288527Y-134848478D01*
X134137521Y-134697472D01*
X133962578Y-134574977D01*
X133962579Y-134574977D01*
X133833547Y-134514809D01*
X133769030Y-134484724D01*
X133769026Y-134484723D01*
X133769022Y-134484721D01*
X133562752Y-134429452D01*
X133562748Y-134429451D01*
X133562747Y-134429451D01*
X133562746Y-134429450D01*
X133562741Y-134429450D01*
X133350002Y-134410838D01*
X133349998Y-134410838D01*
X133137258Y-134429450D01*
X133137247Y-134429452D01*
X132930977Y-134484721D01*
X132930968Y-134484725D01*
X132737421Y-134574977D01*
X132562478Y-134697472D01*
X132411472Y-134848478D01*
X132288977Y-135023421D01*
X132198725Y-135216968D01*
X132198721Y-135216977D01*
X132143452Y-135423247D01*
X132143450Y-135423258D01*
X132124838Y-135635998D01*
X132124838Y-135636001D01*
X103167548Y-135636001D01*
X103167548Y-134112005D01*
X104254881Y-134112005D01*
X104275414Y-134359812D01*
X104275416Y-134359824D01*
X104336460Y-134600881D01*
X104436350Y-134828606D01*
X104572357Y-135036782D01*
X104572360Y-135036785D01*
X104740780Y-135219738D01*
X104937015Y-135372474D01*
X105155714Y-135490828D01*
X105390910Y-135571571D01*
X105636189Y-135612500D01*
X105884859Y-135612500D01*
X106130138Y-135571571D01*
X106365334Y-135490828D01*
X106584033Y-135372474D01*
X106780268Y-135219738D01*
X106948688Y-135036785D01*
X107084697Y-134828607D01*
X107184587Y-134600881D01*
X107245632Y-134359821D01*
X107266167Y-134112000D01*
X107245632Y-133864179D01*
X107184587Y-133623119D01*
X107084697Y-133395393D01*
X107042259Y-133330436D01*
X106948690Y-133187217D01*
X106892061Y-133125702D01*
X106780268Y-133004262D01*
X106584033Y-132851526D01*
X106584031Y-132851525D01*
X106584030Y-132851524D01*
X106365335Y-132733172D01*
X106365326Y-132733169D01*
X106130140Y-132652429D01*
X105884859Y-132611500D01*
X105636189Y-132611500D01*
X105390907Y-132652429D01*
X105155721Y-132733169D01*
X105155712Y-132733172D01*
X104937017Y-132851524D01*
X104740781Y-133004261D01*
X104572357Y-133187217D01*
X104436350Y-133395393D01*
X104336460Y-133623118D01*
X104275416Y-133864175D01*
X104275414Y-133864187D01*
X104254881Y-134111994D01*
X104254881Y-134112005D01*
X103167548Y-134112005D01*
X103167548Y-132431000D01*
X156601827Y-132431000D01*
X156620667Y-132670382D01*
X156676718Y-132903853D01*
X156676722Y-132903865D01*
X156768609Y-133125702D01*
X156894070Y-133330436D01*
X156894072Y-133330439D01*
X157050017Y-133513027D01*
X157232605Y-133668972D01*
X157232607Y-133668973D01*
X157437341Y-133794434D01*
X157534091Y-133834508D01*
X157659181Y-133886323D01*
X157892665Y-133942377D01*
X158132044Y-133961217D01*
X158371423Y-133942377D01*
X158604907Y-133886323D01*
X158826748Y-133794433D01*
X159031483Y-133668972D01*
X159214071Y-133513027D01*
X159370016Y-133330439D01*
X159495477Y-133125704D01*
X159587367Y-132903863D01*
X159643421Y-132670379D01*
X159662261Y-132431000D01*
X159643421Y-132191621D01*
X159587367Y-131958137D01*
X159535552Y-131833047D01*
X159495478Y-131736297D01*
X159370017Y-131531563D01*
X159370016Y-131531561D01*
X159214071Y-131348973D01*
X159031483Y-131193028D01*
X159031480Y-131193026D01*
X158826746Y-131067565D01*
X158604909Y-130975678D01*
X158604911Y-130975678D01*
X158604907Y-130975677D01*
X158604903Y-130975676D01*
X158604897Y-130975674D01*
X158371426Y-130919623D01*
X158132044Y-130900783D01*
X157892661Y-130919623D01*
X157659190Y-130975674D01*
X157659178Y-130975678D01*
X157437341Y-131067565D01*
X157232607Y-131193026D01*
X157050017Y-131348973D01*
X156894070Y-131531563D01*
X156768609Y-131736297D01*
X156676722Y-131958134D01*
X156676718Y-131958146D01*
X156620667Y-132191617D01*
X156601827Y-132431000D01*
X103167548Y-132431000D01*
X103167548Y-129000005D01*
X104280401Y-129000005D01*
X104300934Y-129247812D01*
X104300936Y-129247824D01*
X104361980Y-129488881D01*
X104461870Y-129716606D01*
X104597877Y-129924782D01*
X104597880Y-129924785D01*
X104766300Y-130107738D01*
X104962535Y-130260474D01*
X105181234Y-130378828D01*
X105416430Y-130459571D01*
X105661709Y-130500500D01*
X105910379Y-130500500D01*
X106155658Y-130459571D01*
X106390854Y-130378828D01*
X106609553Y-130260474D01*
X106805788Y-130107738D01*
X106974208Y-129924785D01*
X107110217Y-129716607D01*
X107210107Y-129488881D01*
X107271152Y-129247821D01*
X107291687Y-129000000D01*
X107271152Y-128752179D01*
X107210107Y-128511119D01*
X107110217Y-128283393D01*
X106974210Y-128075217D01*
X106952601Y-128051744D01*
X106805788Y-127892262D01*
X106609553Y-127739526D01*
X106609551Y-127739525D01*
X106609550Y-127739524D01*
X106390855Y-127621172D01*
X106390846Y-127621169D01*
X106155660Y-127540429D01*
X105910379Y-127499500D01*
X105661709Y-127499500D01*
X105416427Y-127540429D01*
X105181241Y-127621169D01*
X105181232Y-127621172D01*
X104962537Y-127739524D01*
X104766301Y-127892261D01*
X104597877Y-128075217D01*
X104461870Y-128283393D01*
X104361980Y-128511118D01*
X104300936Y-128752175D01*
X104300934Y-128752187D01*
X104280401Y-128999994D01*
X104280401Y-129000005D01*
X103167548Y-129000005D01*
X103167548Y-123952005D01*
X104280401Y-123952005D01*
X104300934Y-124199812D01*
X104300936Y-124199824D01*
X104361980Y-124440881D01*
X104461870Y-124668606D01*
X104597877Y-124876782D01*
X104597880Y-124876785D01*
X104766300Y-125059738D01*
X104962535Y-125212474D01*
X105181234Y-125330828D01*
X105416430Y-125411571D01*
X105661709Y-125452500D01*
X105910379Y-125452500D01*
X106155658Y-125411571D01*
X106390854Y-125330828D01*
X106609553Y-125212474D01*
X106805788Y-125059738D01*
X106974208Y-124876785D01*
X107110217Y-124668607D01*
X107210107Y-124440881D01*
X107271152Y-124199821D01*
X107291687Y-123952000D01*
X107271152Y-123704179D01*
X107210107Y-123463119D01*
X107110217Y-123235393D01*
X106974210Y-123027217D01*
X106952601Y-123003744D01*
X106805788Y-122844262D01*
X106609553Y-122691526D01*
X106609551Y-122691525D01*
X106609550Y-122691524D01*
X106390855Y-122573172D01*
X106390846Y-122573169D01*
X106155660Y-122492429D01*
X105910379Y-122451500D01*
X105661709Y-122451500D01*
X105416427Y-122492429D01*
X105181241Y-122573169D01*
X105181232Y-122573172D01*
X104962537Y-122691524D01*
X104766301Y-122844261D01*
X104597877Y-123027217D01*
X104461870Y-123235393D01*
X104361980Y-123463118D01*
X104300936Y-123704175D01*
X104300934Y-123704187D01*
X104280401Y-123951994D01*
X104280401Y-123952005D01*
X103167548Y-123952005D01*
X103167548Y-117968626D01*
X105535544Y-117968626D01*
X105538339Y-118021243D01*
X105538339Y-118021244D01*
X105580611Y-118239814D01*
X105582799Y-118251126D01*
X105612047Y-118328627D01*
X105665469Y-118470189D01*
X105783973Y-118672131D01*
X105783978Y-118672138D01*
X105934900Y-118851141D01*
X105934902Y-118851143D01*
X106113905Y-119002065D01*
X106113912Y-119002070D01*
X106315854Y-119120574D01*
X106534918Y-119203245D01*
X106764803Y-119247705D01*
X106806238Y-119249905D01*
X106817418Y-119250500D01*
X106817422Y-119250500D01*
X108754670Y-119250500D01*
X108764775Y-119249962D01*
X108807285Y-119247705D01*
X109037170Y-119203245D01*
X109256234Y-119120574D01*
X109458176Y-119002070D01*
X109637186Y-118851142D01*
X109770392Y-118693152D01*
X109788109Y-118672138D01*
X109788109Y-118672137D01*
X109788114Y-118672132D01*
X109906618Y-118470190D01*
X109989289Y-118251126D01*
X110033749Y-118021241D01*
X110036544Y-117968622D01*
X110036544Y-116031378D01*
X110033749Y-115978759D01*
X109989289Y-115748874D01*
X109906618Y-115529810D01*
X109788114Y-115327868D01*
X109788109Y-115327861D01*
X109637187Y-115148858D01*
X109637185Y-115148856D01*
X109458182Y-114997934D01*
X109458175Y-114997929D01*
X109256233Y-114879425D01*
X109158557Y-114842564D01*
X109037170Y-114796755D01*
X109037165Y-114796754D01*
X109037160Y-114796752D01*
X109034514Y-114796240D01*
X109033495Y-114795713D01*
X109032094Y-114795317D01*
X109032174Y-114795031D01*
X108972436Y-114764177D01*
X108937547Y-114703641D01*
X108940925Y-114633853D01*
X108981496Y-114576970D01*
X109046381Y-114551052D01*
X109058053Y-114550499D01*
X112583916Y-114550499D01*
X112643527Y-114544091D01*
X112778375Y-114493796D01*
X112893590Y-114407546D01*
X112979840Y-114292331D01*
X113030135Y-114157483D01*
X113036544Y-114097873D01*
X113036543Y-110502128D01*
X113030135Y-110442517D01*
X112979840Y-110307669D01*
X112979839Y-110307668D01*
X112979837Y-110307664D01*
X112893591Y-110192455D01*
X112893588Y-110192452D01*
X112778379Y-110106206D01*
X112778372Y-110106202D01*
X112643526Y-110055908D01*
X112643527Y-110055908D01*
X112583927Y-110049501D01*
X112583925Y-110049500D01*
X112583917Y-110049500D01*
X112583908Y-110049500D01*
X108988173Y-110049500D01*
X108988167Y-110049501D01*
X108928560Y-110055908D01*
X108793715Y-110106202D01*
X108793708Y-110106206D01*
X108678499Y-110192452D01*
X108678496Y-110192455D01*
X108592250Y-110307664D01*
X108592246Y-110307671D01*
X108541952Y-110442517D01*
X108535545Y-110502116D01*
X108535545Y-110502123D01*
X108535544Y-110502135D01*
X108535544Y-114097870D01*
X108535545Y-114097876D01*
X108541952Y-114157483D01*
X108592246Y-114292328D01*
X108592250Y-114292335D01*
X108678496Y-114407544D01*
X108678499Y-114407547D01*
X108793708Y-114493793D01*
X108793717Y-114493798D01*
X108840981Y-114511426D01*
X108896915Y-114553296D01*
X108921333Y-114618760D01*
X108906482Y-114687033D01*
X108857077Y-114736439D01*
X108791072Y-114751433D01*
X108754671Y-114749500D01*
X108754666Y-114749500D01*
X106817422Y-114749500D01*
X106817418Y-114749500D01*
X106764800Y-114752295D01*
X106764799Y-114752295D01*
X106534922Y-114796754D01*
X106534920Y-114796754D01*
X106534918Y-114796755D01*
X106460977Y-114824659D01*
X106315854Y-114879425D01*
X106113912Y-114997929D01*
X106113905Y-114997934D01*
X105934902Y-115148856D01*
X105934900Y-115148858D01*
X105783978Y-115327861D01*
X105783973Y-115327868D01*
X105665469Y-115529810D01*
X105610703Y-115674933D01*
X105582799Y-115748874D01*
X105582798Y-115748876D01*
X105582798Y-115748878D01*
X105538339Y-115978755D01*
X105538339Y-115978756D01*
X105535544Y-116031374D01*
X105535544Y-117968626D01*
X103167548Y-117968626D01*
X103167548Y-103001759D01*
X103167646Y-102998280D01*
X103177507Y-102822772D01*
X103183828Y-102710287D01*
X103184604Y-102703406D01*
X103232636Y-102420754D01*
X103234177Y-102414003D01*
X103281428Y-102250000D01*
X109830385Y-102250000D01*
X109850980Y-102485403D01*
X109850982Y-102485413D01*
X109912138Y-102713655D01*
X109912140Y-102713659D01*
X109912141Y-102713663D01*
X109916044Y-102722032D01*
X110012009Y-102927830D01*
X110012011Y-102927834D01*
X110100942Y-103054839D01*
X110147545Y-103121396D01*
X110147550Y-103121402D01*
X110269474Y-103243326D01*
X110302959Y-103304649D01*
X110297975Y-103374341D01*
X110256103Y-103430274D01*
X110225127Y-103447189D01*
X110093713Y-103496203D01*
X110093708Y-103496206D01*
X109978499Y-103582452D01*
X109978496Y-103582455D01*
X109892250Y-103697664D01*
X109892246Y-103697671D01*
X109841952Y-103832517D01*
X109835545Y-103892116D01*
X109835544Y-103892135D01*
X109835544Y-105687870D01*
X109835545Y-105687876D01*
X109841952Y-105747483D01*
X109892246Y-105882328D01*
X109892250Y-105882335D01*
X109978496Y-105997544D01*
X109978499Y-105997547D01*
X110093708Y-106083793D01*
X110093715Y-106083797D01*
X110228561Y-106134091D01*
X110228560Y-106134091D01*
X110235488Y-106134835D01*
X110288171Y-106140500D01*
X112083916Y-106140499D01*
X112143527Y-106134091D01*
X112278375Y-106083796D01*
X112393590Y-105997546D01*
X112479840Y-105882331D01*
X112528854Y-105750916D01*
X112570725Y-105694984D01*
X112636189Y-105670566D01*
X112704462Y-105685417D01*
X112732717Y-105706569D01*
X112854643Y-105828495D01*
X112951428Y-105896265D01*
X113048209Y-105964032D01*
X113048211Y-105964033D01*
X113048214Y-105964035D01*
X113262381Y-106063903D01*
X113490636Y-106125063D01*
X113667078Y-106140500D01*
X113726043Y-106145659D01*
X113726044Y-106145659D01*
X113726045Y-106145659D01*
X113785010Y-106140500D01*
X113961452Y-106125063D01*
X114189707Y-106063903D01*
X114403874Y-105964035D01*
X114597445Y-105828495D01*
X114764539Y-105661401D01*
X114894469Y-105475842D01*
X114949046Y-105432217D01*
X115018544Y-105425023D01*
X115080899Y-105456546D01*
X115097619Y-105475842D01*
X115227544Y-105661395D01*
X115227549Y-105661401D01*
X115394643Y-105828495D01*
X115491428Y-105896265D01*
X115588209Y-105964032D01*
X115588211Y-105964033D01*
X115588214Y-105964035D01*
X115802381Y-106063903D01*
X116030636Y-106125063D01*
X116207078Y-106140500D01*
X116266043Y-106145659D01*
X116266044Y-106145659D01*
X116266045Y-106145659D01*
X116325010Y-106140500D01*
X116501452Y-106125063D01*
X116729707Y-106063903D01*
X116943874Y-105964035D01*
X117137445Y-105828495D01*
X117304539Y-105661401D01*
X117434469Y-105475842D01*
X117489046Y-105432217D01*
X117558544Y-105425023D01*
X117620899Y-105456546D01*
X117637619Y-105475842D01*
X117767544Y-105661395D01*
X117767549Y-105661401D01*
X117934643Y-105828495D01*
X118031428Y-105896265D01*
X118128209Y-105964032D01*
X118128211Y-105964033D01*
X118128214Y-105964035D01*
X118342381Y-106063903D01*
X118570636Y-106125063D01*
X118747078Y-106140500D01*
X118806043Y-106145659D01*
X118806044Y-106145659D01*
X118806045Y-106145659D01*
X118865010Y-106140500D01*
X119041452Y-106125063D01*
X119269707Y-106063903D01*
X119483874Y-105964035D01*
X119677445Y-105828495D01*
X119844539Y-105661401D01*
X119980079Y-105467830D01*
X120079947Y-105253663D01*
X120141107Y-105025408D01*
X120161703Y-104790000D01*
X120141107Y-104554592D01*
X120079947Y-104326337D01*
X119980079Y-104112171D01*
X119974469Y-104104158D01*
X119844538Y-103918597D01*
X119677446Y-103751506D01*
X119677440Y-103751501D01*
X119491886Y-103621575D01*
X119448261Y-103566998D01*
X119441067Y-103497500D01*
X119472590Y-103435145D01*
X119491886Y-103418425D01*
X119604098Y-103339853D01*
X119677445Y-103288495D01*
X119844539Y-103121401D01*
X119974469Y-102935842D01*
X120029046Y-102892217D01*
X120098544Y-102885023D01*
X120160899Y-102916546D01*
X120177619Y-102935842D01*
X120307544Y-103121395D01*
X120307549Y-103121401D01*
X120474643Y-103288495D01*
X120547990Y-103339853D01*
X120668209Y-103424032D01*
X120668211Y-103424033D01*
X120668214Y-103424035D01*
X120882381Y-103523903D01*
X121110636Y-103585063D01*
X121298962Y-103601539D01*
X121346043Y-103605659D01*
X121346044Y-103605659D01*
X121346045Y-103605659D01*
X121385278Y-103602226D01*
X121581452Y-103585063D01*
X121809707Y-103523903D01*
X122023874Y-103424035D01*
X122217445Y-103288495D01*
X122384539Y-103121401D01*
X122514469Y-102935842D01*
X122569046Y-102892217D01*
X122638544Y-102885023D01*
X122700899Y-102916546D01*
X122717619Y-102935842D01*
X122847545Y-103121396D01*
X122847550Y-103121402D01*
X123014641Y-103288493D01*
X123014647Y-103288498D01*
X123200202Y-103418425D01*
X123243827Y-103473002D01*
X123251021Y-103542500D01*
X123219498Y-103604855D01*
X123200202Y-103621575D01*
X123014641Y-103751505D01*
X122847549Y-103918597D01*
X122712009Y-104112169D01*
X122712008Y-104112171D01*
X122612142Y-104326335D01*
X122612138Y-104326344D01*
X122550982Y-104554586D01*
X122550980Y-104554596D01*
X122530385Y-104789999D01*
X122530385Y-104790000D01*
X122550980Y-105025403D01*
X122550982Y-105025413D01*
X122612138Y-105253655D01*
X122612140Y-105253659D01*
X122612141Y-105253663D01*
X122616044Y-105262032D01*
X122712009Y-105467830D01*
X122712011Y-105467834D01*
X122820325Y-105622521D01*
X122847549Y-105661401D01*
X123014643Y-105828495D01*
X123111428Y-105896265D01*
X123208209Y-105964032D01*
X123208211Y-105964033D01*
X123208214Y-105964035D01*
X123422381Y-106063903D01*
X123650636Y-106125063D01*
X123827078Y-106140500D01*
X123886043Y-106145659D01*
X123886044Y-106145659D01*
X123886045Y-106145659D01*
X123945010Y-106140500D01*
X124121452Y-106125063D01*
X124349707Y-106063903D01*
X124563874Y-105964035D01*
X124757445Y-105828495D01*
X124924539Y-105661401D01*
X125054469Y-105475842D01*
X125109046Y-105432217D01*
X125178544Y-105425023D01*
X125240899Y-105456546D01*
X125257619Y-105475842D01*
X125387544Y-105661395D01*
X125387549Y-105661401D01*
X125554643Y-105828495D01*
X125651428Y-105896265D01*
X125748209Y-105964032D01*
X125748211Y-105964033D01*
X125748214Y-105964035D01*
X125962381Y-106063903D01*
X126190636Y-106125063D01*
X126367078Y-106140500D01*
X126426043Y-106145659D01*
X126426044Y-106145659D01*
X126426045Y-106145659D01*
X126485010Y-106140500D01*
X126661452Y-106125063D01*
X126889707Y-106063903D01*
X127103874Y-105964035D01*
X127297445Y-105828495D01*
X127464539Y-105661401D01*
X127594469Y-105475842D01*
X127649046Y-105432217D01*
X127718544Y-105425023D01*
X127780899Y-105456546D01*
X127797619Y-105475842D01*
X127927544Y-105661395D01*
X127927549Y-105661401D01*
X128094643Y-105828495D01*
X128191428Y-105896265D01*
X128288209Y-105964032D01*
X128288211Y-105964033D01*
X128288214Y-105964035D01*
X128502381Y-106063903D01*
X128730636Y-106125063D01*
X128907078Y-106140500D01*
X128966043Y-106145659D01*
X128966044Y-106145659D01*
X128966045Y-106145659D01*
X129025010Y-106140500D01*
X129201452Y-106125063D01*
X129429707Y-106063903D01*
X129643874Y-105964035D01*
X129837445Y-105828495D01*
X130004539Y-105661401D01*
X130134469Y-105475842D01*
X130189046Y-105432217D01*
X130258544Y-105425023D01*
X130320899Y-105456546D01*
X130337619Y-105475842D01*
X130467544Y-105661395D01*
X130467549Y-105661401D01*
X130634643Y-105828495D01*
X130731428Y-105896265D01*
X130828209Y-105964032D01*
X130828211Y-105964033D01*
X130828214Y-105964035D01*
X131042381Y-106063903D01*
X131270636Y-106125063D01*
X131447078Y-106140500D01*
X131506043Y-106145659D01*
X131506044Y-106145659D01*
X131506045Y-106145659D01*
X131565010Y-106140500D01*
X131741452Y-106125063D01*
X131969707Y-106063903D01*
X132183874Y-105964035D01*
X132377445Y-105828495D01*
X132544539Y-105661401D01*
X132674469Y-105475842D01*
X132729046Y-105432217D01*
X132798544Y-105425023D01*
X132860899Y-105456546D01*
X132877619Y-105475842D01*
X133007544Y-105661395D01*
X133007549Y-105661401D01*
X133174643Y-105828495D01*
X133271428Y-105896265D01*
X133368209Y-105964032D01*
X133368211Y-105964033D01*
X133368214Y-105964035D01*
X133582381Y-106063903D01*
X133810636Y-106125063D01*
X133987078Y-106140500D01*
X134046043Y-106145659D01*
X134046044Y-106145659D01*
X134046045Y-106145659D01*
X134105010Y-106140500D01*
X134281452Y-106125063D01*
X134509707Y-106063903D01*
X134723874Y-105964035D01*
X134917445Y-105828495D01*
X135084539Y-105661401D01*
X135214469Y-105475842D01*
X135269046Y-105432217D01*
X135338544Y-105425023D01*
X135400899Y-105456546D01*
X135417619Y-105475842D01*
X135547544Y-105661395D01*
X135547549Y-105661401D01*
X135714643Y-105828495D01*
X135811428Y-105896265D01*
X135908209Y-105964032D01*
X135908211Y-105964033D01*
X135908214Y-105964035D01*
X136122381Y-106063903D01*
X136350636Y-106125063D01*
X136527078Y-106140500D01*
X136586043Y-106145659D01*
X136586044Y-106145659D01*
X136586045Y-106145659D01*
X136645010Y-106140500D01*
X136821452Y-106125063D01*
X137049707Y-106063903D01*
X137263874Y-105964035D01*
X137457445Y-105828495D01*
X137624539Y-105661401D01*
X137754469Y-105475842D01*
X137809046Y-105432217D01*
X137878544Y-105425023D01*
X137940899Y-105456546D01*
X137957619Y-105475842D01*
X138087544Y-105661395D01*
X138087549Y-105661401D01*
X138254643Y-105828495D01*
X138351428Y-105896265D01*
X138448209Y-105964032D01*
X138448211Y-105964033D01*
X138448214Y-105964035D01*
X138662381Y-106063903D01*
X138890636Y-106125063D01*
X139067078Y-106140500D01*
X139126043Y-106145659D01*
X139126044Y-106145659D01*
X139126045Y-106145659D01*
X139185010Y-106140500D01*
X139361452Y-106125063D01*
X139589707Y-106063903D01*
X139803874Y-105964035D01*
X139997445Y-105828495D01*
X140164539Y-105661401D01*
X140300079Y-105467830D01*
X140399947Y-105253663D01*
X140461107Y-105025408D01*
X140481703Y-104790000D01*
X140461107Y-104554592D01*
X140399947Y-104326337D01*
X140300079Y-104112171D01*
X140294469Y-104104158D01*
X140164538Y-103918597D01*
X139997446Y-103751506D01*
X139997440Y-103751501D01*
X139811886Y-103621575D01*
X139768261Y-103566998D01*
X139761067Y-103497500D01*
X139792590Y-103435145D01*
X139811886Y-103418425D01*
X139924098Y-103339853D01*
X139997445Y-103288495D01*
X140164539Y-103121401D01*
X140294469Y-102935842D01*
X140349046Y-102892217D01*
X140418544Y-102885023D01*
X140480899Y-102916546D01*
X140497619Y-102935842D01*
X140627544Y-103121395D01*
X140627549Y-103121401D01*
X140794643Y-103288495D01*
X140867990Y-103339853D01*
X140988209Y-103424032D01*
X140988211Y-103424033D01*
X140988214Y-103424035D01*
X141202381Y-103523903D01*
X141430636Y-103585063D01*
X141618962Y-103601539D01*
X141666043Y-103605659D01*
X141666044Y-103605659D01*
X141666045Y-103605659D01*
X141705278Y-103602226D01*
X141901452Y-103585063D01*
X142129707Y-103523903D01*
X142343874Y-103424035D01*
X142537445Y-103288495D01*
X142704539Y-103121401D01*
X142834469Y-102935842D01*
X142889046Y-102892217D01*
X142958544Y-102885023D01*
X143020899Y-102916546D01*
X143037619Y-102935842D01*
X143167545Y-103121396D01*
X143167550Y-103121402D01*
X143334641Y-103288493D01*
X143334647Y-103288498D01*
X143520202Y-103418425D01*
X143563827Y-103473002D01*
X143571021Y-103542500D01*
X143539498Y-103604855D01*
X143520202Y-103621575D01*
X143334641Y-103751505D01*
X143167549Y-103918597D01*
X143032009Y-104112169D01*
X143032008Y-104112171D01*
X142932142Y-104326335D01*
X142932138Y-104326344D01*
X142870982Y-104554586D01*
X142870980Y-104554596D01*
X142850385Y-104789999D01*
X142850385Y-104790000D01*
X142870980Y-105025403D01*
X142870982Y-105025413D01*
X142932138Y-105253655D01*
X142932140Y-105253659D01*
X142932141Y-105253663D01*
X142936044Y-105262032D01*
X143032009Y-105467830D01*
X143032011Y-105467834D01*
X143140325Y-105622521D01*
X143167549Y-105661401D01*
X143334643Y-105828495D01*
X143431428Y-105896265D01*
X143528209Y-105964032D01*
X143528211Y-105964033D01*
X143528214Y-105964035D01*
X143742381Y-106063903D01*
X143970636Y-106125063D01*
X144147078Y-106140500D01*
X144206043Y-106145659D01*
X144206044Y-106145659D01*
X144206045Y-106145659D01*
X144265010Y-106140500D01*
X144441452Y-106125063D01*
X144669707Y-106063903D01*
X144883874Y-105964035D01*
X145077445Y-105828495D01*
X145244539Y-105661401D01*
X145374469Y-105475842D01*
X145429046Y-105432217D01*
X145498544Y-105425023D01*
X145560899Y-105456546D01*
X145577619Y-105475842D01*
X145707544Y-105661395D01*
X145707549Y-105661401D01*
X145874643Y-105828495D01*
X145971428Y-105896265D01*
X146068209Y-105964032D01*
X146068211Y-105964033D01*
X146068214Y-105964035D01*
X146282381Y-106063903D01*
X146510636Y-106125063D01*
X146687078Y-106140500D01*
X146746043Y-106145659D01*
X146746044Y-106145659D01*
X146746045Y-106145659D01*
X146805010Y-106140500D01*
X146981452Y-106125063D01*
X147209707Y-106063903D01*
X147423874Y-105964035D01*
X147617445Y-105828495D01*
X147784539Y-105661401D01*
X147914469Y-105475842D01*
X147969046Y-105432217D01*
X148038544Y-105425023D01*
X148100899Y-105456546D01*
X148117619Y-105475842D01*
X148247544Y-105661395D01*
X148247549Y-105661401D01*
X148414643Y-105828495D01*
X148511428Y-105896265D01*
X148608209Y-105964032D01*
X148608211Y-105964033D01*
X148608214Y-105964035D01*
X148822381Y-106063903D01*
X149050636Y-106125063D01*
X149227078Y-106140500D01*
X149286043Y-106145659D01*
X149286044Y-106145659D01*
X149286045Y-106145659D01*
X149345010Y-106140500D01*
X149521452Y-106125063D01*
X149749707Y-106063903D01*
X149963874Y-105964035D01*
X150157445Y-105828495D01*
X150324539Y-105661401D01*
X150454469Y-105475842D01*
X150509046Y-105432217D01*
X150578544Y-105425023D01*
X150640899Y-105456546D01*
X150657619Y-105475842D01*
X150787544Y-105661395D01*
X150787549Y-105661401D01*
X150954643Y-105828495D01*
X151051428Y-105896265D01*
X151148209Y-105964032D01*
X151148211Y-105964033D01*
X151148214Y-105964035D01*
X151362381Y-106063903D01*
X151590636Y-106125063D01*
X151767078Y-106140500D01*
X151826043Y-106145659D01*
X151826044Y-106145659D01*
X151826045Y-106145659D01*
X151885010Y-106140500D01*
X152061452Y-106125063D01*
X152289707Y-106063903D01*
X152503874Y-105964035D01*
X152697445Y-105828495D01*
X152864539Y-105661401D01*
X152994469Y-105475842D01*
X153049046Y-105432217D01*
X153118544Y-105425023D01*
X153180899Y-105456546D01*
X153197619Y-105475842D01*
X153327544Y-105661395D01*
X153327549Y-105661401D01*
X153494643Y-105828495D01*
X153591428Y-105896265D01*
X153688209Y-105964032D01*
X153688211Y-105964033D01*
X153688214Y-105964035D01*
X153902381Y-106063903D01*
X154130636Y-106125063D01*
X154307078Y-106140500D01*
X154366043Y-106145659D01*
X154366044Y-106145659D01*
X154366045Y-106145659D01*
X154425010Y-106140500D01*
X154601452Y-106125063D01*
X154829707Y-106063903D01*
X155043874Y-105964035D01*
X155237445Y-105828495D01*
X155404539Y-105661401D01*
X155534469Y-105475842D01*
X155589046Y-105432217D01*
X155658544Y-105425023D01*
X155720899Y-105456546D01*
X155737619Y-105475842D01*
X155867544Y-105661395D01*
X155867549Y-105661401D01*
X156034643Y-105828495D01*
X156228214Y-105964035D01*
X156234872Y-105967139D01*
X156287309Y-106013308D01*
X156306463Y-106080501D01*
X156286249Y-106147383D01*
X156274617Y-106162493D01*
X156173510Y-106274784D01*
X156078865Y-106438715D01*
X156078862Y-106438722D01*
X156020371Y-106618740D01*
X156020370Y-106618744D01*
X156002723Y-106786649D01*
X155976138Y-106851263D01*
X155967083Y-106861368D01*
X155668732Y-107159719D01*
X155656475Y-107169540D01*
X155656658Y-107169761D01*
X155650647Y-107174733D01*
X155603296Y-107225156D01*
X155582413Y-107246039D01*
X155582401Y-107246052D01*
X155578145Y-107251537D01*
X155574361Y-107255967D01*
X155542461Y-107289938D01*
X155542460Y-107289940D01*
X155532808Y-107307496D01*
X155522134Y-107323746D01*
X155509853Y-107339581D01*
X155509848Y-107339588D01*
X155491339Y-107382358D01*
X155488769Y-107387604D01*
X155466327Y-107428426D01*
X155461346Y-107447827D01*
X155455045Y-107466230D01*
X155447086Y-107484622D01*
X155447085Y-107484625D01*
X155439795Y-107530647D01*
X155438611Y-107536366D01*
X155427025Y-107581492D01*
X155427024Y-107581502D01*
X155427024Y-107601536D01*
X155425497Y-107620935D01*
X155422364Y-107640714D01*
X155422364Y-107640715D01*
X155426749Y-107687103D01*
X155427024Y-107692941D01*
X155427024Y-113030814D01*
X155407339Y-113097853D01*
X155354535Y-113143608D01*
X155285377Y-113153552D01*
X155242096Y-113136005D01*
X155240887Y-113138101D01*
X155235253Y-113134848D01*
X155062331Y-113057857D01*
X155062326Y-113057855D01*
X154916525Y-113026865D01*
X154877170Y-113018500D01*
X154687878Y-113018500D01*
X154655421Y-113025398D01*
X154502721Y-113057855D01*
X154502716Y-113057857D01*
X154329794Y-113134848D01*
X154329789Y-113134851D01*
X154176653Y-113246111D01*
X154049990Y-113386785D01*
X153955345Y-113550715D01*
X153955342Y-113550722D01*
X153896851Y-113730740D01*
X153896850Y-113730744D01*
X153877064Y-113919000D01*
X153896850Y-114107256D01*
X153896851Y-114107259D01*
X153955342Y-114287277D01*
X153955345Y-114287284D01*
X154049991Y-114451216D01*
X154088332Y-114493798D01*
X154125174Y-114534715D01*
X154155404Y-114597706D01*
X154157024Y-114617687D01*
X154157024Y-118147255D01*
X154155299Y-118162872D01*
X154155585Y-118162899D01*
X154154850Y-118170665D01*
X154157024Y-118239814D01*
X154157024Y-118269343D01*
X154157025Y-118269360D01*
X154157892Y-118276231D01*
X154158350Y-118282050D01*
X154159814Y-118328624D01*
X154159815Y-118328627D01*
X154165404Y-118347867D01*
X154169348Y-118366911D01*
X154171860Y-118386792D01*
X154178571Y-118403743D01*
X154189014Y-118430119D01*
X154190906Y-118435647D01*
X154203905Y-118480388D01*
X154214104Y-118497634D01*
X154222662Y-118515103D01*
X154230038Y-118533732D01*
X154257422Y-118571423D01*
X154260630Y-118576307D01*
X154284351Y-118616416D01*
X154284357Y-118616424D01*
X154298514Y-118630580D01*
X154311152Y-118645376D01*
X154322929Y-118661586D01*
X154322930Y-118661587D01*
X154358833Y-118691288D01*
X154363144Y-118695210D01*
X154979673Y-119311740D01*
X155113562Y-119445629D01*
X155147047Y-119506952D01*
X155149202Y-119520348D01*
X155157492Y-119599227D01*
X155166850Y-119688256D01*
X155166851Y-119688259D01*
X155225342Y-119868277D01*
X155225345Y-119868284D01*
X155319991Y-120032216D01*
X155446653Y-120172888D01*
X155599789Y-120284148D01*
X155599794Y-120284151D01*
X155772716Y-120361142D01*
X155772721Y-120361144D01*
X155957878Y-120400500D01*
X155957879Y-120400500D01*
X156147168Y-120400500D01*
X156147170Y-120400500D01*
X156332327Y-120361144D01*
X156505254Y-120284151D01*
X156658395Y-120172888D01*
X156785057Y-120032216D01*
X156879703Y-119868284D01*
X156938198Y-119688256D01*
X156957984Y-119500000D01*
X156938198Y-119311744D01*
X156879703Y-119131716D01*
X156785057Y-118967784D01*
X156658395Y-118827112D01*
X156658394Y-118827111D01*
X156505258Y-118715851D01*
X156505253Y-118715848D01*
X156332331Y-118638857D01*
X156332327Y-118638856D01*
X156262183Y-118623946D01*
X156200702Y-118590753D01*
X156166925Y-118529590D01*
X156171579Y-118459875D01*
X156213183Y-118403743D01*
X156262179Y-118381368D01*
X156357327Y-118361144D01*
X156530254Y-118284151D01*
X156683395Y-118172888D01*
X156810057Y-118032216D01*
X156904703Y-117868284D01*
X156963198Y-117688256D01*
X156982984Y-117500000D01*
X156963198Y-117311744D01*
X156904703Y-117131716D01*
X156810057Y-116967784D01*
X156728024Y-116876677D01*
X156709874Y-116856519D01*
X156679644Y-116793527D01*
X156678024Y-116773547D01*
X156678024Y-107970972D01*
X156697709Y-107903933D01*
X156714343Y-107883291D01*
X156853815Y-107743819D01*
X156915138Y-107710334D01*
X156941496Y-107707500D01*
X157000688Y-107707500D01*
X157000690Y-107707500D01*
X157185847Y-107668144D01*
X157358774Y-107591151D01*
X157511915Y-107479888D01*
X157638577Y-107339216D01*
X157733223Y-107175284D01*
X157791718Y-106995256D01*
X157811504Y-106807000D01*
X157791718Y-106618744D01*
X157733223Y-106438716D01*
X157638577Y-106274784D01*
X157576228Y-106205538D01*
X157537470Y-106162493D01*
X157507240Y-106099501D01*
X157515865Y-106030166D01*
X157560607Y-105976501D01*
X157577213Y-105967141D01*
X157583874Y-105964035D01*
X157777445Y-105828495D01*
X157944539Y-105661401D01*
X158080079Y-105467830D01*
X158179947Y-105253663D01*
X158241107Y-105025408D01*
X158261703Y-104790000D01*
X158241107Y-104554592D01*
X158179947Y-104326337D01*
X158080079Y-104112171D01*
X158074469Y-104104158D01*
X157944538Y-103918597D01*
X157777446Y-103751506D01*
X157777440Y-103751501D01*
X157591886Y-103621575D01*
X157548261Y-103566998D01*
X157541067Y-103497500D01*
X157572590Y-103435145D01*
X157591886Y-103418425D01*
X157704098Y-103339853D01*
X157777445Y-103288495D01*
X157944539Y-103121401D01*
X158074469Y-102935842D01*
X158129046Y-102892217D01*
X158198544Y-102885023D01*
X158260899Y-102916546D01*
X158277619Y-102935842D01*
X158407544Y-103121395D01*
X158407549Y-103121401D01*
X158574643Y-103288495D01*
X158647990Y-103339853D01*
X158768209Y-103424032D01*
X158768211Y-103424033D01*
X158768214Y-103424035D01*
X158982381Y-103523903D01*
X159210636Y-103585063D01*
X159398962Y-103601539D01*
X159446043Y-103605659D01*
X159446044Y-103605659D01*
X159446045Y-103605659D01*
X159485278Y-103602226D01*
X159681452Y-103585063D01*
X159909707Y-103523903D01*
X160123874Y-103424035D01*
X160317445Y-103288495D01*
X160484539Y-103121401D01*
X160620079Y-102927830D01*
X160719947Y-102713663D01*
X160781107Y-102485408D01*
X160801703Y-102250000D01*
X160781107Y-102014592D01*
X160734670Y-101841285D01*
X160719949Y-101786344D01*
X160719948Y-101786343D01*
X160719947Y-101786337D01*
X160620079Y-101572171D01*
X160614469Y-101564158D01*
X160484538Y-101378597D01*
X160317446Y-101211506D01*
X160317439Y-101211501D01*
X160123878Y-101075967D01*
X160123874Y-101075965D01*
X160123872Y-101075964D01*
X159909707Y-100976097D01*
X159909703Y-100976096D01*
X159909699Y-100976094D01*
X159681457Y-100914938D01*
X159681447Y-100914936D01*
X159446045Y-100894341D01*
X159446043Y-100894341D01*
X159210640Y-100914936D01*
X159210630Y-100914938D01*
X158982388Y-100976094D01*
X158982379Y-100976098D01*
X158768215Y-101075964D01*
X158768213Y-101075965D01*
X158574641Y-101211505D01*
X158407549Y-101378597D01*
X158277619Y-101564158D01*
X158223042Y-101607783D01*
X158153544Y-101614977D01*
X158091189Y-101583454D01*
X158074469Y-101564158D01*
X157944538Y-101378597D01*
X157777446Y-101211506D01*
X157777439Y-101211501D01*
X157583878Y-101075967D01*
X157583874Y-101075965D01*
X157583872Y-101075964D01*
X157369707Y-100976097D01*
X157369703Y-100976096D01*
X157369699Y-100976094D01*
X157141457Y-100914938D01*
X157141447Y-100914936D01*
X156906045Y-100894341D01*
X156906043Y-100894341D01*
X156670640Y-100914936D01*
X156670630Y-100914938D01*
X156442388Y-100976094D01*
X156442379Y-100976098D01*
X156228215Y-101075964D01*
X156228213Y-101075965D01*
X156034641Y-101211505D01*
X155867549Y-101378597D01*
X155737619Y-101564158D01*
X155683042Y-101607783D01*
X155613544Y-101614977D01*
X155551189Y-101583454D01*
X155534469Y-101564158D01*
X155404538Y-101378597D01*
X155237446Y-101211506D01*
X155237439Y-101211501D01*
X155043878Y-101075967D01*
X155043874Y-101075965D01*
X155043872Y-101075964D01*
X154829707Y-100976097D01*
X154829703Y-100976096D01*
X154829699Y-100976094D01*
X154601457Y-100914938D01*
X154601447Y-100914936D01*
X154366045Y-100894341D01*
X154366043Y-100894341D01*
X154130640Y-100914936D01*
X154130630Y-100914938D01*
X153902388Y-100976094D01*
X153902379Y-100976098D01*
X153688215Y-101075964D01*
X153688213Y-101075965D01*
X153494641Y-101211505D01*
X153327549Y-101378597D01*
X153192009Y-101572169D01*
X153192008Y-101572171D01*
X153092142Y-101786335D01*
X153092138Y-101786344D01*
X153030982Y-102014586D01*
X153030980Y-102014596D01*
X153010385Y-102249999D01*
X153010385Y-102250000D01*
X153030980Y-102485403D01*
X153030982Y-102485413D01*
X153092138Y-102713655D01*
X153092140Y-102713659D01*
X153092141Y-102713663D01*
X153096044Y-102722032D01*
X153192009Y-102927830D01*
X153192011Y-102927834D01*
X153280942Y-103054839D01*
X153327545Y-103121396D01*
X153327550Y-103121402D01*
X153494641Y-103288493D01*
X153494647Y-103288498D01*
X153680202Y-103418425D01*
X153723827Y-103473002D01*
X153731021Y-103542500D01*
X153699498Y-103604855D01*
X153680202Y-103621575D01*
X153494641Y-103751505D01*
X153327549Y-103918597D01*
X153197619Y-104104158D01*
X153143042Y-104147783D01*
X153073544Y-104154977D01*
X153011189Y-104123454D01*
X152994469Y-104104158D01*
X152864538Y-103918597D01*
X152697446Y-103751506D01*
X152697439Y-103751501D01*
X152503878Y-103615967D01*
X152503874Y-103615965D01*
X152481773Y-103605659D01*
X152289707Y-103516097D01*
X152289703Y-103516096D01*
X152289699Y-103516094D01*
X152061457Y-103454938D01*
X152061447Y-103454936D01*
X151826045Y-103434341D01*
X151826043Y-103434341D01*
X151590640Y-103454936D01*
X151590630Y-103454938D01*
X151362388Y-103516094D01*
X151362379Y-103516098D01*
X151148215Y-103615964D01*
X151148213Y-103615965D01*
X150954641Y-103751505D01*
X150787549Y-103918597D01*
X150657619Y-104104158D01*
X150603042Y-104147783D01*
X150533544Y-104154977D01*
X150471189Y-104123454D01*
X150454469Y-104104158D01*
X150324538Y-103918597D01*
X150157446Y-103751506D01*
X150157440Y-103751501D01*
X149971886Y-103621575D01*
X149928261Y-103566998D01*
X149921067Y-103497500D01*
X149952590Y-103435145D01*
X149971886Y-103418425D01*
X150084098Y-103339853D01*
X150157445Y-103288495D01*
X150324539Y-103121401D01*
X150460079Y-102927830D01*
X150559947Y-102713663D01*
X150621107Y-102485408D01*
X150641703Y-102250000D01*
X150621107Y-102014592D01*
X150574670Y-101841285D01*
X150559949Y-101786344D01*
X150559948Y-101786343D01*
X150559947Y-101786337D01*
X150460079Y-101572171D01*
X150454469Y-101564158D01*
X150324538Y-101378597D01*
X150157446Y-101211506D01*
X150157439Y-101211501D01*
X149963878Y-101075967D01*
X149963874Y-101075965D01*
X149963872Y-101075964D01*
X149749707Y-100976097D01*
X149749703Y-100976096D01*
X149749699Y-100976094D01*
X149521457Y-100914938D01*
X149521447Y-100914936D01*
X149286045Y-100894341D01*
X149286043Y-100894341D01*
X149050640Y-100914936D01*
X149050630Y-100914938D01*
X148822388Y-100976094D01*
X148822379Y-100976098D01*
X148608215Y-101075964D01*
X148608213Y-101075965D01*
X148414641Y-101211505D01*
X148247549Y-101378597D01*
X148112009Y-101572169D01*
X148112008Y-101572171D01*
X148012142Y-101786335D01*
X148012138Y-101786344D01*
X147950982Y-102014586D01*
X147950980Y-102014596D01*
X147930385Y-102249999D01*
X147930385Y-102250000D01*
X147950980Y-102485403D01*
X147950982Y-102485413D01*
X148012138Y-102713655D01*
X148012140Y-102713659D01*
X148012141Y-102713663D01*
X148016044Y-102722032D01*
X148112009Y-102927830D01*
X148112011Y-102927834D01*
X148200942Y-103054839D01*
X148247545Y-103121396D01*
X148247550Y-103121402D01*
X148414641Y-103288493D01*
X148414647Y-103288498D01*
X148600202Y-103418425D01*
X148643827Y-103473002D01*
X148651021Y-103542500D01*
X148619498Y-103604855D01*
X148600202Y-103621575D01*
X148414641Y-103751505D01*
X148247549Y-103918597D01*
X148117619Y-104104158D01*
X148063042Y-104147783D01*
X147993544Y-104154977D01*
X147931189Y-104123454D01*
X147914469Y-104104158D01*
X147784538Y-103918597D01*
X147617446Y-103751506D01*
X147617439Y-103751501D01*
X147423878Y-103615967D01*
X147423874Y-103615965D01*
X147401773Y-103605659D01*
X147209707Y-103516097D01*
X147209703Y-103516096D01*
X147209699Y-103516094D01*
X146981457Y-103454938D01*
X146981447Y-103454936D01*
X146746045Y-103434341D01*
X146746043Y-103434341D01*
X146510640Y-103454936D01*
X146510630Y-103454938D01*
X146282388Y-103516094D01*
X146282379Y-103516098D01*
X146068215Y-103615964D01*
X146068213Y-103615965D01*
X145874641Y-103751505D01*
X145707549Y-103918597D01*
X145577619Y-104104158D01*
X145523042Y-104147783D01*
X145453544Y-104154977D01*
X145391189Y-104123454D01*
X145374469Y-104104158D01*
X145244538Y-103918597D01*
X145077446Y-103751506D01*
X145077440Y-103751501D01*
X144891886Y-103621575D01*
X144848261Y-103566998D01*
X144841067Y-103497500D01*
X144872590Y-103435145D01*
X144891886Y-103418425D01*
X145004098Y-103339853D01*
X145077445Y-103288495D01*
X145244539Y-103121401D01*
X145380079Y-102927830D01*
X145479947Y-102713663D01*
X145541107Y-102485408D01*
X145561703Y-102250000D01*
X145541107Y-102014592D01*
X145494670Y-101841285D01*
X145479949Y-101786344D01*
X145479948Y-101786343D01*
X145479947Y-101786337D01*
X145380079Y-101572171D01*
X145374469Y-101564158D01*
X145244538Y-101378597D01*
X145077446Y-101211506D01*
X145077439Y-101211501D01*
X144883878Y-101075967D01*
X144883874Y-101075965D01*
X144883872Y-101075964D01*
X144669707Y-100976097D01*
X144669703Y-100976096D01*
X144669699Y-100976094D01*
X144441457Y-100914938D01*
X144441447Y-100914936D01*
X144206045Y-100894341D01*
X144206043Y-100894341D01*
X143970640Y-100914936D01*
X143970630Y-100914938D01*
X143742388Y-100976094D01*
X143742379Y-100976098D01*
X143528215Y-101075964D01*
X143528213Y-101075965D01*
X143334641Y-101211505D01*
X143167549Y-101378597D01*
X143037619Y-101564158D01*
X142983042Y-101607783D01*
X142913544Y-101614977D01*
X142851189Y-101583454D01*
X142834469Y-101564158D01*
X142704538Y-101378597D01*
X142537446Y-101211506D01*
X142537439Y-101211501D01*
X142343878Y-101075967D01*
X142343874Y-101075965D01*
X142343872Y-101075964D01*
X142129707Y-100976097D01*
X142129703Y-100976096D01*
X142129699Y-100976094D01*
X141901457Y-100914938D01*
X141901447Y-100914936D01*
X141666045Y-100894341D01*
X141666043Y-100894341D01*
X141430640Y-100914936D01*
X141430630Y-100914938D01*
X141202388Y-100976094D01*
X141202379Y-100976098D01*
X140988215Y-101075964D01*
X140988213Y-101075965D01*
X140794641Y-101211505D01*
X140627549Y-101378597D01*
X140497619Y-101564158D01*
X140443042Y-101607783D01*
X140373544Y-101614977D01*
X140311189Y-101583454D01*
X140294469Y-101564158D01*
X140164538Y-101378597D01*
X139997446Y-101211506D01*
X139997439Y-101211501D01*
X139803878Y-101075967D01*
X139803874Y-101075965D01*
X139803872Y-101075964D01*
X139589707Y-100976097D01*
X139589703Y-100976096D01*
X139589699Y-100976094D01*
X139361457Y-100914938D01*
X139361447Y-100914936D01*
X139126045Y-100894341D01*
X139126043Y-100894341D01*
X138890640Y-100914936D01*
X138890630Y-100914938D01*
X138662388Y-100976094D01*
X138662379Y-100976098D01*
X138448215Y-101075964D01*
X138448213Y-101075965D01*
X138254641Y-101211505D01*
X138087549Y-101378597D01*
X137957619Y-101564158D01*
X137903042Y-101607783D01*
X137833544Y-101614977D01*
X137771189Y-101583454D01*
X137754469Y-101564158D01*
X137624538Y-101378597D01*
X137457446Y-101211506D01*
X137457439Y-101211501D01*
X137263878Y-101075967D01*
X137263874Y-101075965D01*
X137263872Y-101075964D01*
X137049707Y-100976097D01*
X137049703Y-100976096D01*
X137049699Y-100976094D01*
X136821457Y-100914938D01*
X136821447Y-100914936D01*
X136586045Y-100894341D01*
X136586043Y-100894341D01*
X136350640Y-100914936D01*
X136350630Y-100914938D01*
X136122388Y-100976094D01*
X136122379Y-100976098D01*
X135908215Y-101075964D01*
X135908213Y-101075965D01*
X135714641Y-101211505D01*
X135547549Y-101378597D01*
X135412009Y-101572169D01*
X135412008Y-101572171D01*
X135312142Y-101786335D01*
X135312138Y-101786344D01*
X135250982Y-102014586D01*
X135250980Y-102014596D01*
X135230385Y-102249999D01*
X135230385Y-102250000D01*
X135250980Y-102485403D01*
X135250982Y-102485413D01*
X135312138Y-102713655D01*
X135312140Y-102713659D01*
X135312141Y-102713663D01*
X135316044Y-102722032D01*
X135412009Y-102927830D01*
X135412011Y-102927834D01*
X135500942Y-103054839D01*
X135547545Y-103121396D01*
X135547550Y-103121402D01*
X135714641Y-103288493D01*
X135714647Y-103288498D01*
X135900202Y-103418425D01*
X135943827Y-103473002D01*
X135951021Y-103542500D01*
X135919498Y-103604855D01*
X135900202Y-103621575D01*
X135714641Y-103751505D01*
X135547549Y-103918597D01*
X135417619Y-104104158D01*
X135363042Y-104147783D01*
X135293544Y-104154977D01*
X135231189Y-104123454D01*
X135214469Y-104104158D01*
X135084538Y-103918597D01*
X134917446Y-103751506D01*
X134917439Y-103751501D01*
X134723878Y-103615967D01*
X134723874Y-103615965D01*
X134701773Y-103605659D01*
X134509707Y-103516097D01*
X134509703Y-103516096D01*
X134509699Y-103516094D01*
X134281457Y-103454938D01*
X134281447Y-103454936D01*
X134046045Y-103434341D01*
X134046043Y-103434341D01*
X133810640Y-103454936D01*
X133810630Y-103454938D01*
X133582388Y-103516094D01*
X133582379Y-103516098D01*
X133368215Y-103615964D01*
X133368213Y-103615965D01*
X133174641Y-103751505D01*
X133007549Y-103918597D01*
X132877619Y-104104158D01*
X132823042Y-104147783D01*
X132753544Y-104154977D01*
X132691189Y-104123454D01*
X132674469Y-104104158D01*
X132544538Y-103918597D01*
X132377446Y-103751506D01*
X132377440Y-103751501D01*
X132191886Y-103621575D01*
X132148261Y-103566998D01*
X132141067Y-103497500D01*
X132172590Y-103435145D01*
X132191886Y-103418425D01*
X132304098Y-103339853D01*
X132377445Y-103288495D01*
X132544539Y-103121401D01*
X132680079Y-102927830D01*
X132779947Y-102713663D01*
X132841107Y-102485408D01*
X132861703Y-102250000D01*
X132841107Y-102014592D01*
X132794670Y-101841285D01*
X132779949Y-101786344D01*
X132779948Y-101786343D01*
X132779947Y-101786337D01*
X132680079Y-101572171D01*
X132674469Y-101564158D01*
X132544538Y-101378597D01*
X132377446Y-101211506D01*
X132377439Y-101211501D01*
X132183878Y-101075967D01*
X132183874Y-101075965D01*
X132183872Y-101075964D01*
X131969707Y-100976097D01*
X131969703Y-100976096D01*
X131969699Y-100976094D01*
X131741457Y-100914938D01*
X131741447Y-100914936D01*
X131506045Y-100894341D01*
X131506043Y-100894341D01*
X131270640Y-100914936D01*
X131270630Y-100914938D01*
X131042388Y-100976094D01*
X131042379Y-100976098D01*
X130828215Y-101075964D01*
X130828213Y-101075965D01*
X130634641Y-101211505D01*
X130467549Y-101378597D01*
X130337619Y-101564158D01*
X130283042Y-101607783D01*
X130213544Y-101614977D01*
X130151189Y-101583454D01*
X130134469Y-101564158D01*
X130004538Y-101378597D01*
X129837446Y-101211506D01*
X129837439Y-101211501D01*
X129643878Y-101075967D01*
X129643874Y-101075965D01*
X129643872Y-101075964D01*
X129429707Y-100976097D01*
X129429703Y-100976096D01*
X129429699Y-100976094D01*
X129201457Y-100914938D01*
X129201447Y-100914936D01*
X128966045Y-100894341D01*
X128966043Y-100894341D01*
X128730640Y-100914936D01*
X128730630Y-100914938D01*
X128502388Y-100976094D01*
X128502379Y-100976098D01*
X128288215Y-101075964D01*
X128288213Y-101075965D01*
X128094641Y-101211505D01*
X127927549Y-101378597D01*
X127792009Y-101572169D01*
X127792008Y-101572171D01*
X127692142Y-101786335D01*
X127692138Y-101786344D01*
X127630982Y-102014586D01*
X127630980Y-102014596D01*
X127610385Y-102249999D01*
X127610385Y-102250000D01*
X127630980Y-102485403D01*
X127630982Y-102485413D01*
X127692138Y-102713655D01*
X127692140Y-102713659D01*
X127692141Y-102713663D01*
X127696044Y-102722032D01*
X127792009Y-102927830D01*
X127792011Y-102927834D01*
X127880942Y-103054839D01*
X127927545Y-103121396D01*
X127927550Y-103121402D01*
X128094641Y-103288493D01*
X128094647Y-103288498D01*
X128280202Y-103418425D01*
X128323827Y-103473002D01*
X128331021Y-103542500D01*
X128299498Y-103604855D01*
X128280202Y-103621575D01*
X128094641Y-103751505D01*
X127927549Y-103918597D01*
X127797619Y-104104158D01*
X127743042Y-104147783D01*
X127673544Y-104154977D01*
X127611189Y-104123454D01*
X127594469Y-104104158D01*
X127464538Y-103918597D01*
X127297446Y-103751506D01*
X127297439Y-103751501D01*
X127103878Y-103615967D01*
X127103874Y-103615965D01*
X127081773Y-103605659D01*
X126889707Y-103516097D01*
X126889703Y-103516096D01*
X126889699Y-103516094D01*
X126661457Y-103454938D01*
X126661447Y-103454936D01*
X126426045Y-103434341D01*
X126426043Y-103434341D01*
X126190640Y-103454936D01*
X126190630Y-103454938D01*
X125962388Y-103516094D01*
X125962379Y-103516098D01*
X125748215Y-103615964D01*
X125748213Y-103615965D01*
X125554641Y-103751505D01*
X125387549Y-103918597D01*
X125257619Y-104104158D01*
X125203042Y-104147783D01*
X125133544Y-104154977D01*
X125071189Y-104123454D01*
X125054469Y-104104158D01*
X124924538Y-103918597D01*
X124757446Y-103751506D01*
X124757440Y-103751501D01*
X124571886Y-103621575D01*
X124528261Y-103566998D01*
X124521067Y-103497500D01*
X124552590Y-103435145D01*
X124571886Y-103418425D01*
X124684098Y-103339853D01*
X124757445Y-103288495D01*
X124924539Y-103121401D01*
X125060079Y-102927830D01*
X125159947Y-102713663D01*
X125221107Y-102485408D01*
X125241703Y-102250000D01*
X125221107Y-102014592D01*
X125174670Y-101841285D01*
X125159949Y-101786344D01*
X125159948Y-101786343D01*
X125159947Y-101786337D01*
X125060079Y-101572171D01*
X125054469Y-101564158D01*
X124924538Y-101378597D01*
X124757446Y-101211506D01*
X124757439Y-101211501D01*
X124563878Y-101075967D01*
X124563874Y-101075965D01*
X124563872Y-101075964D01*
X124349707Y-100976097D01*
X124349703Y-100976096D01*
X124349699Y-100976094D01*
X124121457Y-100914938D01*
X124121447Y-100914936D01*
X123886045Y-100894341D01*
X123886043Y-100894341D01*
X123650640Y-100914936D01*
X123650630Y-100914938D01*
X123422388Y-100976094D01*
X123422379Y-100976098D01*
X123208215Y-101075964D01*
X123208213Y-101075965D01*
X123014641Y-101211505D01*
X122847549Y-101378597D01*
X122717619Y-101564158D01*
X122663042Y-101607783D01*
X122593544Y-101614977D01*
X122531189Y-101583454D01*
X122514469Y-101564158D01*
X122384538Y-101378597D01*
X122217446Y-101211506D01*
X122217439Y-101211501D01*
X122023878Y-101075967D01*
X122023874Y-101075965D01*
X122023872Y-101075964D01*
X121809707Y-100976097D01*
X121809703Y-100976096D01*
X121809699Y-100976094D01*
X121581457Y-100914938D01*
X121581447Y-100914936D01*
X121346045Y-100894341D01*
X121346043Y-100894341D01*
X121110640Y-100914936D01*
X121110630Y-100914938D01*
X120882388Y-100976094D01*
X120882379Y-100976098D01*
X120668215Y-101075964D01*
X120668213Y-101075965D01*
X120474641Y-101211505D01*
X120307549Y-101378597D01*
X120177619Y-101564158D01*
X120123042Y-101607783D01*
X120053544Y-101614977D01*
X119991189Y-101583454D01*
X119974469Y-101564158D01*
X119844538Y-101378597D01*
X119677446Y-101211506D01*
X119677439Y-101211501D01*
X119483878Y-101075967D01*
X119483874Y-101075965D01*
X119483872Y-101075964D01*
X119269707Y-100976097D01*
X119269703Y-100976096D01*
X119269699Y-100976094D01*
X119041457Y-100914938D01*
X119041447Y-100914936D01*
X118806045Y-100894341D01*
X118806043Y-100894341D01*
X118570640Y-100914936D01*
X118570630Y-100914938D01*
X118342388Y-100976094D01*
X118342379Y-100976098D01*
X118128215Y-101075964D01*
X118128213Y-101075965D01*
X117934641Y-101211505D01*
X117767549Y-101378597D01*
X117632009Y-101572169D01*
X117632008Y-101572171D01*
X117532142Y-101786335D01*
X117532138Y-101786344D01*
X117470982Y-102014586D01*
X117470980Y-102014596D01*
X117450385Y-102249999D01*
X117450385Y-102250000D01*
X117470980Y-102485403D01*
X117470982Y-102485413D01*
X117532138Y-102713655D01*
X117532140Y-102713659D01*
X117532141Y-102713663D01*
X117536044Y-102722032D01*
X117632009Y-102927830D01*
X117632011Y-102927834D01*
X117720942Y-103054839D01*
X117767545Y-103121396D01*
X117767550Y-103121402D01*
X117934641Y-103288493D01*
X117934647Y-103288498D01*
X118120202Y-103418425D01*
X118163827Y-103473002D01*
X118171021Y-103542500D01*
X118139498Y-103604855D01*
X118120202Y-103621575D01*
X117934641Y-103751505D01*
X117767549Y-103918597D01*
X117637619Y-104104158D01*
X117583042Y-104147783D01*
X117513544Y-104154977D01*
X117451189Y-104123454D01*
X117434469Y-104104158D01*
X117304538Y-103918597D01*
X117137446Y-103751506D01*
X117137439Y-103751501D01*
X116943878Y-103615967D01*
X116943874Y-103615965D01*
X116921773Y-103605659D01*
X116729707Y-103516097D01*
X116729703Y-103516096D01*
X116729699Y-103516094D01*
X116501457Y-103454938D01*
X116501447Y-103454936D01*
X116266045Y-103434341D01*
X116266043Y-103434341D01*
X116030640Y-103454936D01*
X116030630Y-103454938D01*
X115802388Y-103516094D01*
X115802379Y-103516098D01*
X115588215Y-103615964D01*
X115588213Y-103615965D01*
X115394641Y-103751505D01*
X115227549Y-103918597D01*
X115097619Y-104104158D01*
X115043042Y-104147783D01*
X114973544Y-104154977D01*
X114911189Y-104123454D01*
X114894469Y-104104158D01*
X114764538Y-103918597D01*
X114597446Y-103751506D01*
X114597440Y-103751501D01*
X114411886Y-103621575D01*
X114368261Y-103566998D01*
X114361067Y-103497500D01*
X114392590Y-103435145D01*
X114411886Y-103418425D01*
X114524098Y-103339853D01*
X114597445Y-103288495D01*
X114764539Y-103121401D01*
X114900079Y-102927830D01*
X114999947Y-102713663D01*
X115061107Y-102485408D01*
X115081703Y-102250000D01*
X115061107Y-102014592D01*
X115014670Y-101841285D01*
X114999949Y-101786344D01*
X114999948Y-101786343D01*
X114999947Y-101786337D01*
X114900079Y-101572171D01*
X114894469Y-101564158D01*
X114764538Y-101378597D01*
X114597446Y-101211506D01*
X114597439Y-101211501D01*
X114403878Y-101075967D01*
X114403874Y-101075965D01*
X114403872Y-101075964D01*
X114189707Y-100976097D01*
X114189703Y-100976096D01*
X114189699Y-100976094D01*
X113961457Y-100914938D01*
X113961447Y-100914936D01*
X113726045Y-100894341D01*
X113726043Y-100894341D01*
X113490640Y-100914936D01*
X113490630Y-100914938D01*
X113262388Y-100976094D01*
X113262379Y-100976098D01*
X113048215Y-101075964D01*
X113048213Y-101075965D01*
X112854641Y-101211505D01*
X112687549Y-101378597D01*
X112557619Y-101564158D01*
X112503042Y-101607783D01*
X112433544Y-101614977D01*
X112371189Y-101583454D01*
X112354469Y-101564158D01*
X112224538Y-101378597D01*
X112057446Y-101211506D01*
X112057439Y-101211501D01*
X111863878Y-101075967D01*
X111863874Y-101075965D01*
X111863872Y-101075964D01*
X111649707Y-100976097D01*
X111649703Y-100976096D01*
X111649699Y-100976094D01*
X111421457Y-100914938D01*
X111421447Y-100914936D01*
X111186045Y-100894341D01*
X111186043Y-100894341D01*
X110950640Y-100914936D01*
X110950630Y-100914938D01*
X110722388Y-100976094D01*
X110722379Y-100976098D01*
X110508215Y-101075964D01*
X110508213Y-101075965D01*
X110314641Y-101211505D01*
X110147549Y-101378597D01*
X110012009Y-101572169D01*
X110012008Y-101572171D01*
X109912142Y-101786335D01*
X109912138Y-101786344D01*
X109850982Y-102014586D01*
X109850980Y-102014596D01*
X109830385Y-102249999D01*
X109830385Y-102250000D01*
X103281428Y-102250000D01*
X103313549Y-102138511D01*
X103315837Y-102131974D01*
X103425557Y-101867096D01*
X103428566Y-101860847D01*
X103567258Y-101609909D01*
X103570931Y-101604063D01*
X103736838Y-101370239D01*
X103741166Y-101364811D01*
X103932198Y-101151043D01*
X103937103Y-101146137D01*
X104150872Y-100955097D01*
X104156312Y-100950760D01*
X104156377Y-100950714D01*
X104390115Y-100784862D01*
X104395990Y-100781170D01*
X104646900Y-100642490D01*
X104653163Y-100639474D01*
X104767509Y-100592105D01*
X104918016Y-100529758D01*
X104924579Y-100527462D01*
X104964812Y-100515869D01*
X105200060Y-100448087D01*
X105206829Y-100446542D01*
X105489458Y-100398509D01*
X105496362Y-100397732D01*
X105783411Y-100381598D01*
X105786891Y-100381500D01*
X164722150Y-100381500D01*
X164722190Y-100381502D01*
G37*
G04 #@! TD.AperFunction*
M02*
