G04 #@! TF.GenerationSoftware,KiCad,Pcbnew,7.0.9*
G04 #@! TF.CreationDate,2024-02-12T17:54:23+00:00*
G04 #@! TF.ProjectId,Radio HAT,52616469-6f20-4484-9154-2e6b69636164,v2*
G04 #@! TF.SameCoordinates,Original*
G04 #@! TF.FileFunction,Soldermask,Bot*
G04 #@! TF.FilePolarity,Negative*
%FSLAX46Y46*%
G04 Gerber Fmt 4.6, Leading zero omitted, Abs format (unit mm)*
G04 Created by KiCad (PCBNEW 7.0.9) date 2024-02-12 17:54:23*
%MOMM*%
%LPD*%
G01*
G04 APERTURE LIST*
G04 Aperture macros list*
%AMRoundRect*
0 Rectangle with rounded corners*
0 $1 Rounding radius*
0 $2 $3 $4 $5 $6 $7 $8 $9 X,Y pos of 4 corners*
0 Add a 4 corners polygon primitive as box body*
4,1,4,$2,$3,$4,$5,$6,$7,$8,$9,$2,$3,0*
0 Add four circle primitives for the rounded corners*
1,1,$1+$1,$2,$3*
1,1,$1+$1,$4,$5*
1,1,$1+$1,$6,$7*
1,1,$1+$1,$8,$9*
0 Add four rect primitives between the rounded corners*
20,1,$1+$1,$2,$3,$4,$5,0*
20,1,$1+$1,$4,$5,$6,$7,0*
20,1,$1+$1,$6,$7,$8,$9,0*
20,1,$1+$1,$8,$9,$2,$3,0*%
G04 Aperture macros list end*
%ADD10C,2.000000*%
%ADD11C,1.440000*%
%ADD12C,2.050000*%
%ADD13C,2.250000*%
%ADD14C,0.800000*%
%ADD15C,5.400000*%
%ADD16R,1.700000X1.700000*%
%ADD17O,1.700000X1.700000*%
%ADD18R,3.500000X3.500000*%
%ADD19RoundRect,0.750000X-0.750000X-1.000000X0.750000X-1.000000X0.750000X1.000000X-0.750000X1.000000X0*%
%ADD20RoundRect,0.875000X-0.875000X-0.875000X0.875000X-0.875000X0.875000X0.875000X-0.875000X0.875000X0*%
G04 APERTURE END LIST*
D10*
X105760524Y-134112000D03*
X105760524Y-139065000D03*
D11*
X130810000Y-135636000D03*
X133350000Y-135636000D03*
X135890000Y-135636000D03*
D12*
X158132044Y-132431000D03*
D13*
X155592044Y-129891000D03*
X155592044Y-134971000D03*
X160672044Y-129891000D03*
X160672044Y-134971000D03*
D14*
X162261044Y-103500000D03*
X162854153Y-102068109D03*
X162854153Y-104931891D03*
X164286044Y-101475000D03*
D15*
X164286044Y-103500000D03*
D14*
X164286044Y-105525000D03*
X165717935Y-102068109D03*
X165717935Y-104931891D03*
X166311044Y-103500000D03*
D16*
X111186044Y-104790000D03*
D17*
X111186044Y-102250000D03*
X113726044Y-104790000D03*
X113726044Y-102250000D03*
X116266044Y-104790000D03*
X116266044Y-102250000D03*
X118806044Y-104790000D03*
X118806044Y-102250000D03*
X121346044Y-104790000D03*
X121346044Y-102250000D03*
X123886044Y-104790000D03*
X123886044Y-102250000D03*
X126426044Y-104790000D03*
X126426044Y-102250000D03*
X128966044Y-104790000D03*
X128966044Y-102250000D03*
X131506044Y-104790000D03*
X131506044Y-102250000D03*
X134046044Y-104790000D03*
X134046044Y-102250000D03*
X136586044Y-104790000D03*
X136586044Y-102250000D03*
X139126044Y-104790000D03*
X139126044Y-102250000D03*
X141666044Y-104790000D03*
X141666044Y-102250000D03*
X144206044Y-104790000D03*
X144206044Y-102250000D03*
X146746044Y-104790000D03*
X146746044Y-102250000D03*
X149286044Y-104790000D03*
X149286044Y-102250000D03*
X151826044Y-104790000D03*
X151826044Y-102250000D03*
X154366044Y-104790000D03*
X154366044Y-102250000D03*
X156906044Y-104790000D03*
X156906044Y-102250000D03*
X159446044Y-104790000D03*
X159446044Y-102250000D03*
D18*
X110786044Y-112300000D03*
D19*
X104786044Y-112300000D03*
D20*
X107786044Y-117000000D03*
D10*
X105786044Y-123952000D03*
X105786044Y-129000000D03*
D14*
X104261044Y-103500000D03*
X104854153Y-102068109D03*
X104854153Y-104931891D03*
X106286044Y-101475000D03*
D15*
X106286044Y-103500000D03*
D14*
X106286044Y-105525000D03*
X107717935Y-102068109D03*
X107717935Y-104931891D03*
X108311044Y-103500000D03*
M02*
