G04 #@! TF.GenerationSoftware,KiCad,Pcbnew,7.0.9*
G04 #@! TF.CreationDate,2024-02-12T17:54:23+00:00*
G04 #@! TF.ProjectId,Radio HAT,52616469-6f20-4484-9154-2e6b69636164,v2*
G04 #@! TF.SameCoordinates,Original*
G04 #@! TF.FileFunction,Legend,Top*
G04 #@! TF.FilePolarity,Positive*
%FSLAX46Y46*%
G04 Gerber Fmt 4.6, Leading zero omitted, Abs format (unit mm)*
G04 Created by KiCad (PCBNEW 7.0.9) date 2024-02-12 17:54:23*
%MOMM*%
%LPD*%
G01*
G04 APERTURE LIST*
G04 Aperture macros list*
%AMRoundRect*
0 Rectangle with rounded corners*
0 $1 Rounding radius*
0 $2 $3 $4 $5 $6 $7 $8 $9 X,Y pos of 4 corners*
0 Add a 4 corners polygon primitive as box body*
4,1,4,$2,$3,$4,$5,$6,$7,$8,$9,$2,$3,0*
0 Add four circle primitives for the rounded corners*
1,1,$1+$1,$2,$3*
1,1,$1+$1,$4,$5*
1,1,$1+$1,$6,$7*
1,1,$1+$1,$8,$9*
0 Add four rect primitives between the rounded corners*
20,1,$1+$1,$2,$3,$4,$5,0*
20,1,$1+$1,$4,$5,$6,$7,0*
20,1,$1+$1,$6,$7,$8,$9,0*
20,1,$1+$1,$8,$9,$2,$3,0*%
G04 Aperture macros list end*
%ADD10C,0.150000*%
%ADD11C,0.200000*%
%ADD12C,0.120000*%
%ADD13C,0.127000*%
%ADD14C,0.100000*%
%ADD15RoundRect,0.250000X0.350000X0.450000X-0.350000X0.450000X-0.350000X-0.450000X0.350000X-0.450000X0*%
%ADD16RoundRect,0.250000X0.450000X-0.350000X0.450000X0.350000X-0.450000X0.350000X-0.450000X-0.350000X0*%
%ADD17C,2.000000*%
%ADD18C,1.440000*%
%ADD19RoundRect,0.250000X-0.475000X0.337500X-0.475000X-0.337500X0.475000X-0.337500X0.475000X0.337500X0*%
%ADD20RoundRect,0.237500X-0.237500X0.300000X-0.237500X-0.300000X0.237500X-0.300000X0.237500X0.300000X0*%
%ADD21RoundRect,0.237500X0.237500X-0.300000X0.237500X0.300000X-0.237500X0.300000X-0.237500X-0.300000X0*%
%ADD22RoundRect,0.250000X-0.450000X0.350000X-0.450000X-0.350000X0.450000X-0.350000X0.450000X0.350000X0*%
%ADD23C,2.050000*%
%ADD24C,2.250000*%
%ADD25RoundRect,0.250000X0.475000X-0.337500X0.475000X0.337500X-0.475000X0.337500X-0.475000X-0.337500X0*%
%ADD26C,0.800000*%
%ADD27C,5.400000*%
%ADD28R,1.700000X1.700000*%
%ADD29O,1.700000X1.700000*%
%ADD30RoundRect,0.250000X-0.350000X0.850000X-0.350000X-0.850000X0.350000X-0.850000X0.350000X0.850000X0*%
%ADD31RoundRect,0.249997X-2.650003X2.950003X-2.650003X-2.950003X2.650003X-2.950003X2.650003X2.950003X0*%
%ADD32RoundRect,0.063500X-1.000000X-0.650000X1.000000X-0.650000X1.000000X0.650000X-1.000000X0.650000X0*%
%ADD33RoundRect,0.063500X-5.750000X-2.350000X5.750000X-2.350000X5.750000X2.350000X-5.750000X2.350000X0*%
%ADD34R,3.500000X3.500000*%
%ADD35RoundRect,0.750000X-0.750000X-1.000000X0.750000X-1.000000X0.750000X1.000000X-0.750000X1.000000X0*%
%ADD36RoundRect,0.875000X-0.875000X-0.875000X0.875000X-0.875000X0.875000X0.875000X-0.875000X0.875000X0*%
%ADD37R,1.500000X1.250000*%
%ADD38RoundRect,0.250000X-0.350000X-0.450000X0.350000X-0.450000X0.350000X0.450000X-0.350000X0.450000X0*%
%ADD39RoundRect,0.250000X-0.450000X0.325000X-0.450000X-0.325000X0.450000X-0.325000X0.450000X0.325000X0*%
G04 APERTURE END LIST*
D10*
X140685524Y-140073000D02*
X140685524Y-140573000D01*
X140685524Y-140573000D02*
X163185524Y-140573000D01*
X140685524Y-140073000D02*
X140685524Y-136823000D01*
X131143667Y-131534819D02*
X131762714Y-131534819D01*
X131762714Y-131534819D02*
X131429381Y-131915771D01*
X131429381Y-131915771D02*
X131572238Y-131915771D01*
X131572238Y-131915771D02*
X131667476Y-131963390D01*
X131667476Y-131963390D02*
X131715095Y-132011009D01*
X131715095Y-132011009D02*
X131762714Y-132106247D01*
X131762714Y-132106247D02*
X131762714Y-132344342D01*
X131762714Y-132344342D02*
X131715095Y-132439580D01*
X131715095Y-132439580D02*
X131667476Y-132487200D01*
X131667476Y-132487200D02*
X131572238Y-132534819D01*
X131572238Y-132534819D02*
X131286524Y-132534819D01*
X131286524Y-132534819D02*
X131191286Y-132487200D01*
X131191286Y-132487200D02*
X131143667Y-132439580D01*
X132143667Y-131630057D02*
X132191286Y-131582438D01*
X132191286Y-131582438D02*
X132286524Y-131534819D01*
X132286524Y-131534819D02*
X132524619Y-131534819D01*
X132524619Y-131534819D02*
X132619857Y-131582438D01*
X132619857Y-131582438D02*
X132667476Y-131630057D01*
X132667476Y-131630057D02*
X132715095Y-131725295D01*
X132715095Y-131725295D02*
X132715095Y-131820533D01*
X132715095Y-131820533D02*
X132667476Y-131963390D01*
X132667476Y-131963390D02*
X132096048Y-132534819D01*
X132096048Y-132534819D02*
X132715095Y-132534819D01*
X133191286Y-132534819D02*
X133381762Y-132534819D01*
X133381762Y-132534819D02*
X133477000Y-132487200D01*
X133477000Y-132487200D02*
X133524619Y-132439580D01*
X133524619Y-132439580D02*
X133619857Y-132296723D01*
X133619857Y-132296723D02*
X133667476Y-132106247D01*
X133667476Y-132106247D02*
X133667476Y-131725295D01*
X133667476Y-131725295D02*
X133619857Y-131630057D01*
X133619857Y-131630057D02*
X133572238Y-131582438D01*
X133572238Y-131582438D02*
X133477000Y-131534819D01*
X133477000Y-131534819D02*
X133286524Y-131534819D01*
X133286524Y-131534819D02*
X133191286Y-131582438D01*
X133191286Y-131582438D02*
X133143667Y-131630057D01*
X133143667Y-131630057D02*
X133096048Y-131725295D01*
X133096048Y-131725295D02*
X133096048Y-131963390D01*
X133096048Y-131963390D02*
X133143667Y-132058628D01*
X133143667Y-132058628D02*
X133191286Y-132106247D01*
X133191286Y-132106247D02*
X133286524Y-132153866D01*
X133286524Y-132153866D02*
X133477000Y-132153866D01*
X133477000Y-132153866D02*
X133572238Y-132106247D01*
X133572238Y-132106247D02*
X133619857Y-132058628D01*
X133619857Y-132058628D02*
X133667476Y-131963390D01*
X134524619Y-131534819D02*
X134334143Y-131534819D01*
X134334143Y-131534819D02*
X134238905Y-131582438D01*
X134238905Y-131582438D02*
X134191286Y-131630057D01*
X134191286Y-131630057D02*
X134096048Y-131772914D01*
X134096048Y-131772914D02*
X134048429Y-131963390D01*
X134048429Y-131963390D02*
X134048429Y-132344342D01*
X134048429Y-132344342D02*
X134096048Y-132439580D01*
X134096048Y-132439580D02*
X134143667Y-132487200D01*
X134143667Y-132487200D02*
X134238905Y-132534819D01*
X134238905Y-132534819D02*
X134429381Y-132534819D01*
X134429381Y-132534819D02*
X134524619Y-132487200D01*
X134524619Y-132487200D02*
X134572238Y-132439580D01*
X134572238Y-132439580D02*
X134619857Y-132344342D01*
X134619857Y-132344342D02*
X134619857Y-132106247D01*
X134619857Y-132106247D02*
X134572238Y-132011009D01*
X134572238Y-132011009D02*
X134524619Y-131963390D01*
X134524619Y-131963390D02*
X134429381Y-131915771D01*
X134429381Y-131915771D02*
X134238905Y-131915771D01*
X134238905Y-131915771D02*
X134143667Y-131963390D01*
X134143667Y-131963390D02*
X134096048Y-132011009D01*
X134096048Y-132011009D02*
X134048429Y-132106247D01*
X134953191Y-131534819D02*
X135191286Y-132534819D01*
X135191286Y-132534819D02*
X135381762Y-131820533D01*
X135381762Y-131820533D02*
X135572238Y-132534819D01*
X135572238Y-132534819D02*
X135810334Y-131534819D01*
X161383343Y-123805792D02*
X160907152Y-124139125D01*
X161383343Y-124377220D02*
X160383343Y-124377220D01*
X160383343Y-124377220D02*
X160383343Y-123996268D01*
X160383343Y-123996268D02*
X160430962Y-123901030D01*
X160430962Y-123901030D02*
X160478581Y-123853411D01*
X160478581Y-123853411D02*
X160573819Y-123805792D01*
X160573819Y-123805792D02*
X160716676Y-123805792D01*
X160716676Y-123805792D02*
X160811914Y-123853411D01*
X160811914Y-123853411D02*
X160859533Y-123901030D01*
X160859533Y-123901030D02*
X160907152Y-123996268D01*
X160907152Y-123996268D02*
X160907152Y-124377220D01*
X160859533Y-123043887D02*
X160859533Y-123377220D01*
X161383343Y-123377220D02*
X160383343Y-123377220D01*
X160383343Y-123377220D02*
X160383343Y-122901030D01*
X161383343Y-122520077D02*
X160383343Y-122520077D01*
X160383343Y-122520077D02*
X161097628Y-122186744D01*
X161097628Y-122186744D02*
X160383343Y-121853411D01*
X160383343Y-121853411D02*
X161383343Y-121853411D01*
X161383343Y-121329601D02*
X161383343Y-121139125D01*
X161383343Y-121139125D02*
X161335724Y-121043887D01*
X161335724Y-121043887D02*
X161288104Y-120996268D01*
X161288104Y-120996268D02*
X161145247Y-120901030D01*
X161145247Y-120901030D02*
X160954771Y-120853411D01*
X160954771Y-120853411D02*
X160573819Y-120853411D01*
X160573819Y-120853411D02*
X160478581Y-120901030D01*
X160478581Y-120901030D02*
X160430962Y-120948649D01*
X160430962Y-120948649D02*
X160383343Y-121043887D01*
X160383343Y-121043887D02*
X160383343Y-121234363D01*
X160383343Y-121234363D02*
X160430962Y-121329601D01*
X160430962Y-121329601D02*
X160478581Y-121377220D01*
X160478581Y-121377220D02*
X160573819Y-121424839D01*
X160573819Y-121424839D02*
X160811914Y-121424839D01*
X160811914Y-121424839D02*
X160907152Y-121377220D01*
X160907152Y-121377220D02*
X160954771Y-121329601D01*
X160954771Y-121329601D02*
X161002390Y-121234363D01*
X161002390Y-121234363D02*
X161002390Y-121043887D01*
X161002390Y-121043887D02*
X160954771Y-120948649D01*
X160954771Y-120948649D02*
X160907152Y-120901030D01*
X160907152Y-120901030D02*
X160811914Y-120853411D01*
X160811914Y-120281982D02*
X160764295Y-120377220D01*
X160764295Y-120377220D02*
X160716676Y-120424839D01*
X160716676Y-120424839D02*
X160621438Y-120472458D01*
X160621438Y-120472458D02*
X160573819Y-120472458D01*
X160573819Y-120472458D02*
X160478581Y-120424839D01*
X160478581Y-120424839D02*
X160430962Y-120377220D01*
X160430962Y-120377220D02*
X160383343Y-120281982D01*
X160383343Y-120281982D02*
X160383343Y-120091506D01*
X160383343Y-120091506D02*
X160430962Y-119996268D01*
X160430962Y-119996268D02*
X160478581Y-119948649D01*
X160478581Y-119948649D02*
X160573819Y-119901030D01*
X160573819Y-119901030D02*
X160621438Y-119901030D01*
X160621438Y-119901030D02*
X160716676Y-119948649D01*
X160716676Y-119948649D02*
X160764295Y-119996268D01*
X160764295Y-119996268D02*
X160811914Y-120091506D01*
X160811914Y-120091506D02*
X160811914Y-120281982D01*
X160811914Y-120281982D02*
X160859533Y-120377220D01*
X160859533Y-120377220D02*
X160907152Y-120424839D01*
X160907152Y-120424839D02*
X161002390Y-120472458D01*
X161002390Y-120472458D02*
X161192866Y-120472458D01*
X161192866Y-120472458D02*
X161288104Y-120424839D01*
X161288104Y-120424839D02*
X161335724Y-120377220D01*
X161335724Y-120377220D02*
X161383343Y-120281982D01*
X161383343Y-120281982D02*
X161383343Y-120091506D01*
X161383343Y-120091506D02*
X161335724Y-119996268D01*
X161335724Y-119996268D02*
X161288104Y-119948649D01*
X161288104Y-119948649D02*
X161192866Y-119901030D01*
X161192866Y-119901030D02*
X161002390Y-119901030D01*
X161002390Y-119901030D02*
X160907152Y-119948649D01*
X160907152Y-119948649D02*
X160859533Y-119996268D01*
X160859533Y-119996268D02*
X160811914Y-120091506D01*
X161383343Y-119472458D02*
X160383343Y-119472458D01*
X160383343Y-119472458D02*
X160383343Y-119091506D01*
X160383343Y-119091506D02*
X160430962Y-118996268D01*
X160430962Y-118996268D02*
X160478581Y-118948649D01*
X160478581Y-118948649D02*
X160573819Y-118901030D01*
X160573819Y-118901030D02*
X160716676Y-118901030D01*
X160716676Y-118901030D02*
X160811914Y-118948649D01*
X160811914Y-118948649D02*
X160859533Y-118996268D01*
X160859533Y-118996268D02*
X160907152Y-119091506D01*
X160907152Y-119091506D02*
X160907152Y-119472458D01*
X160383343Y-118567696D02*
X161383343Y-118329601D01*
X161383343Y-118329601D02*
X160669057Y-118139125D01*
X160669057Y-118139125D02*
X161383343Y-117948649D01*
X161383343Y-117948649D02*
X160383343Y-117710554D01*
X108009343Y-130365332D02*
X109009343Y-130031999D01*
X109009343Y-130031999D02*
X108009343Y-129698666D01*
X108914104Y-128793904D02*
X108961724Y-128841523D01*
X108961724Y-128841523D02*
X109009343Y-128984380D01*
X109009343Y-128984380D02*
X109009343Y-129079618D01*
X109009343Y-129079618D02*
X108961724Y-129222475D01*
X108961724Y-129222475D02*
X108866485Y-129317713D01*
X108866485Y-129317713D02*
X108771247Y-129365332D01*
X108771247Y-129365332D02*
X108580771Y-129412951D01*
X108580771Y-129412951D02*
X108437914Y-129412951D01*
X108437914Y-129412951D02*
X108247438Y-129365332D01*
X108247438Y-129365332D02*
X108152200Y-129317713D01*
X108152200Y-129317713D02*
X108056962Y-129222475D01*
X108056962Y-129222475D02*
X108009343Y-129079618D01*
X108009343Y-129079618D02*
X108009343Y-128984380D01*
X108009343Y-128984380D02*
X108056962Y-128841523D01*
X108056962Y-128841523D02*
X108104581Y-128793904D01*
X108914104Y-127793904D02*
X108961724Y-127841523D01*
X108961724Y-127841523D02*
X109009343Y-127984380D01*
X109009343Y-127984380D02*
X109009343Y-128079618D01*
X109009343Y-128079618D02*
X108961724Y-128222475D01*
X108961724Y-128222475D02*
X108866485Y-128317713D01*
X108866485Y-128317713D02*
X108771247Y-128365332D01*
X108771247Y-128365332D02*
X108580771Y-128412951D01*
X108580771Y-128412951D02*
X108437914Y-128412951D01*
X108437914Y-128412951D02*
X108247438Y-128365332D01*
X108247438Y-128365332D02*
X108152200Y-128317713D01*
X108152200Y-128317713D02*
X108056962Y-128222475D01*
X108056962Y-128222475D02*
X108009343Y-128079618D01*
X108009343Y-128079618D02*
X108009343Y-127984380D01*
X108009343Y-127984380D02*
X108056962Y-127841523D01*
X108056962Y-127841523D02*
X108104581Y-127793904D01*
X107929962Y-134761904D02*
X107882343Y-134857142D01*
X107882343Y-134857142D02*
X107882343Y-134999999D01*
X107882343Y-134999999D02*
X107929962Y-135142856D01*
X107929962Y-135142856D02*
X108025200Y-135238094D01*
X108025200Y-135238094D02*
X108120438Y-135285713D01*
X108120438Y-135285713D02*
X108310914Y-135333332D01*
X108310914Y-135333332D02*
X108453771Y-135333332D01*
X108453771Y-135333332D02*
X108644247Y-135285713D01*
X108644247Y-135285713D02*
X108739485Y-135238094D01*
X108739485Y-135238094D02*
X108834724Y-135142856D01*
X108834724Y-135142856D02*
X108882343Y-134999999D01*
X108882343Y-134999999D02*
X108882343Y-134904761D01*
X108882343Y-134904761D02*
X108834724Y-134761904D01*
X108834724Y-134761904D02*
X108787104Y-134714285D01*
X108787104Y-134714285D02*
X108453771Y-134714285D01*
X108453771Y-134714285D02*
X108453771Y-134904761D01*
X108882343Y-134285713D02*
X107882343Y-134285713D01*
X107882343Y-134285713D02*
X108882343Y-133714285D01*
X108882343Y-133714285D02*
X107882343Y-133714285D01*
X108882343Y-133238094D02*
X107882343Y-133238094D01*
X107882343Y-133238094D02*
X107882343Y-132999999D01*
X107882343Y-132999999D02*
X107929962Y-132857142D01*
X107929962Y-132857142D02*
X108025200Y-132761904D01*
X108025200Y-132761904D02*
X108120438Y-132714285D01*
X108120438Y-132714285D02*
X108310914Y-132666666D01*
X108310914Y-132666666D02*
X108453771Y-132666666D01*
X108453771Y-132666666D02*
X108644247Y-132714285D01*
X108644247Y-132714285D02*
X108739485Y-132761904D01*
X108739485Y-132761904D02*
X108834724Y-132857142D01*
X108834724Y-132857142D02*
X108882343Y-132999999D01*
X108882343Y-132999999D02*
X108882343Y-133238094D01*
X112835343Y-119633904D02*
X112835343Y-119014857D01*
X112835343Y-119014857D02*
X113216295Y-119348190D01*
X113216295Y-119348190D02*
X113216295Y-119205333D01*
X113216295Y-119205333D02*
X113263914Y-119110095D01*
X113263914Y-119110095D02*
X113311533Y-119062476D01*
X113311533Y-119062476D02*
X113406771Y-119014857D01*
X113406771Y-119014857D02*
X113644866Y-119014857D01*
X113644866Y-119014857D02*
X113740104Y-119062476D01*
X113740104Y-119062476D02*
X113787724Y-119110095D01*
X113787724Y-119110095D02*
X113835343Y-119205333D01*
X113835343Y-119205333D02*
X113835343Y-119491047D01*
X113835343Y-119491047D02*
X113787724Y-119586285D01*
X113787724Y-119586285D02*
X113740104Y-119633904D01*
X113549628Y-118633904D02*
X113549628Y-118157714D01*
X113835343Y-118729142D02*
X112835343Y-118395809D01*
X112835343Y-118395809D02*
X113835343Y-118062476D01*
X108009343Y-125190094D02*
X108009343Y-124571047D01*
X108009343Y-124571047D02*
X108390295Y-124904380D01*
X108390295Y-124904380D02*
X108390295Y-124761523D01*
X108390295Y-124761523D02*
X108437914Y-124666285D01*
X108437914Y-124666285D02*
X108485533Y-124618666D01*
X108485533Y-124618666D02*
X108580771Y-124571047D01*
X108580771Y-124571047D02*
X108818866Y-124571047D01*
X108818866Y-124571047D02*
X108914104Y-124618666D01*
X108914104Y-124618666D02*
X108961724Y-124666285D01*
X108961724Y-124666285D02*
X109009343Y-124761523D01*
X109009343Y-124761523D02*
X109009343Y-125047237D01*
X109009343Y-125047237D02*
X108961724Y-125142475D01*
X108961724Y-125142475D02*
X108914104Y-125190094D01*
X108009343Y-124285332D02*
X109009343Y-123951999D01*
X109009343Y-123951999D02*
X108009343Y-123618666D01*
X108009343Y-123380570D02*
X108009343Y-122761523D01*
X108009343Y-122761523D02*
X108390295Y-123094856D01*
X108390295Y-123094856D02*
X108390295Y-122951999D01*
X108390295Y-122951999D02*
X108437914Y-122856761D01*
X108437914Y-122856761D02*
X108485533Y-122809142D01*
X108485533Y-122809142D02*
X108580771Y-122761523D01*
X108580771Y-122761523D02*
X108818866Y-122761523D01*
X108818866Y-122761523D02*
X108914104Y-122809142D01*
X108914104Y-122809142D02*
X108961724Y-122856761D01*
X108961724Y-122856761D02*
X109009343Y-122951999D01*
X109009343Y-122951999D02*
X109009343Y-123237713D01*
X109009343Y-123237713D02*
X108961724Y-123332951D01*
X108961724Y-123332951D02*
X108914104Y-123380570D01*
X121473628Y-135219839D02*
X121473628Y-134743649D01*
X121759343Y-135315077D02*
X120759343Y-134981744D01*
X120759343Y-134981744D02*
X121759343Y-134648411D01*
X120759343Y-134410315D02*
X120759343Y-133743649D01*
X120759343Y-133743649D02*
X121759343Y-134410315D01*
X121759343Y-134410315D02*
X121759343Y-133743649D01*
X120854581Y-133410315D02*
X120806962Y-133362696D01*
X120806962Y-133362696D02*
X120759343Y-133267458D01*
X120759343Y-133267458D02*
X120759343Y-133029363D01*
X120759343Y-133029363D02*
X120806962Y-132934125D01*
X120806962Y-132934125D02*
X120854581Y-132886506D01*
X120854581Y-132886506D02*
X120949819Y-132838887D01*
X120949819Y-132838887D02*
X121045057Y-132838887D01*
X121045057Y-132838887D02*
X121187914Y-132886506D01*
X121187914Y-132886506D02*
X121759343Y-133457934D01*
X121759343Y-133457934D02*
X121759343Y-132838887D01*
X121759343Y-131886506D02*
X121759343Y-132457934D01*
X121759343Y-132172220D02*
X120759343Y-132172220D01*
X120759343Y-132172220D02*
X120902200Y-132267458D01*
X120902200Y-132267458D02*
X120997438Y-132362696D01*
X120997438Y-132362696D02*
X121045057Y-132457934D01*
X121187914Y-131315077D02*
X121140295Y-131410315D01*
X121140295Y-131410315D02*
X121092676Y-131457934D01*
X121092676Y-131457934D02*
X120997438Y-131505553D01*
X120997438Y-131505553D02*
X120949819Y-131505553D01*
X120949819Y-131505553D02*
X120854581Y-131457934D01*
X120854581Y-131457934D02*
X120806962Y-131410315D01*
X120806962Y-131410315D02*
X120759343Y-131315077D01*
X120759343Y-131315077D02*
X120759343Y-131124601D01*
X120759343Y-131124601D02*
X120806962Y-131029363D01*
X120806962Y-131029363D02*
X120854581Y-130981744D01*
X120854581Y-130981744D02*
X120949819Y-130934125D01*
X120949819Y-130934125D02*
X120997438Y-130934125D01*
X120997438Y-130934125D02*
X121092676Y-130981744D01*
X121092676Y-130981744D02*
X121140295Y-131029363D01*
X121140295Y-131029363D02*
X121187914Y-131124601D01*
X121187914Y-131124601D02*
X121187914Y-131315077D01*
X121187914Y-131315077D02*
X121235533Y-131410315D01*
X121235533Y-131410315D02*
X121283152Y-131457934D01*
X121283152Y-131457934D02*
X121378390Y-131505553D01*
X121378390Y-131505553D02*
X121568866Y-131505553D01*
X121568866Y-131505553D02*
X121664104Y-131457934D01*
X121664104Y-131457934D02*
X121711724Y-131410315D01*
X121711724Y-131410315D02*
X121759343Y-131315077D01*
X121759343Y-131315077D02*
X121759343Y-131124601D01*
X121759343Y-131124601D02*
X121711724Y-131029363D01*
X121711724Y-131029363D02*
X121664104Y-130981744D01*
X121664104Y-130981744D02*
X121568866Y-130934125D01*
X121568866Y-130934125D02*
X121378390Y-130934125D01*
X121378390Y-130934125D02*
X121283152Y-130981744D01*
X121283152Y-130981744D02*
X121235533Y-131029363D01*
X121235533Y-131029363D02*
X121187914Y-131124601D01*
X120759343Y-130029363D02*
X120759343Y-130505553D01*
X120759343Y-130505553D02*
X121235533Y-130553172D01*
X121235533Y-130553172D02*
X121187914Y-130505553D01*
X121187914Y-130505553D02*
X121140295Y-130410315D01*
X121140295Y-130410315D02*
X121140295Y-130172220D01*
X121140295Y-130172220D02*
X121187914Y-130076982D01*
X121187914Y-130076982D02*
X121235533Y-130029363D01*
X121235533Y-130029363D02*
X121330771Y-129981744D01*
X121330771Y-129981744D02*
X121568866Y-129981744D01*
X121568866Y-129981744D02*
X121664104Y-130029363D01*
X121664104Y-130029363D02*
X121711724Y-130076982D01*
X121711724Y-130076982D02*
X121759343Y-130172220D01*
X121759343Y-130172220D02*
X121759343Y-130410315D01*
X121759343Y-130410315D02*
X121711724Y-130505553D01*
X121711724Y-130505553D02*
X121664104Y-130553172D01*
D11*
X141602816Y-138415742D02*
X141602816Y-137215742D01*
X141602816Y-137215742D02*
X142059959Y-137215742D01*
X142059959Y-137215742D02*
X142174244Y-137272885D01*
X142174244Y-137272885D02*
X142231387Y-137330028D01*
X142231387Y-137330028D02*
X142288530Y-137444314D01*
X142288530Y-137444314D02*
X142288530Y-137615742D01*
X142288530Y-137615742D02*
X142231387Y-137730028D01*
X142231387Y-137730028D02*
X142174244Y-137787171D01*
X142174244Y-137787171D02*
X142059959Y-137844314D01*
X142059959Y-137844314D02*
X141602816Y-137844314D01*
X143488530Y-138415742D02*
X143088530Y-137844314D01*
X142802816Y-138415742D02*
X142802816Y-137215742D01*
X142802816Y-137215742D02*
X143259959Y-137215742D01*
X143259959Y-137215742D02*
X143374244Y-137272885D01*
X143374244Y-137272885D02*
X143431387Y-137330028D01*
X143431387Y-137330028D02*
X143488530Y-137444314D01*
X143488530Y-137444314D02*
X143488530Y-137615742D01*
X143488530Y-137615742D02*
X143431387Y-137730028D01*
X143431387Y-137730028D02*
X143374244Y-137787171D01*
X143374244Y-137787171D02*
X143259959Y-137844314D01*
X143259959Y-137844314D02*
X142802816Y-137844314D01*
X144231387Y-137215742D02*
X144459959Y-137215742D01*
X144459959Y-137215742D02*
X144574244Y-137272885D01*
X144574244Y-137272885D02*
X144688530Y-137387171D01*
X144688530Y-137387171D02*
X144745673Y-137615742D01*
X144745673Y-137615742D02*
X144745673Y-138015742D01*
X144745673Y-138015742D02*
X144688530Y-138244314D01*
X144688530Y-138244314D02*
X144574244Y-138358600D01*
X144574244Y-138358600D02*
X144459959Y-138415742D01*
X144459959Y-138415742D02*
X144231387Y-138415742D01*
X144231387Y-138415742D02*
X144117102Y-138358600D01*
X144117102Y-138358600D02*
X144002816Y-138244314D01*
X144002816Y-138244314D02*
X143945673Y-138015742D01*
X143945673Y-138015742D02*
X143945673Y-137615742D01*
X143945673Y-137615742D02*
X144002816Y-137387171D01*
X144002816Y-137387171D02*
X144117102Y-137272885D01*
X144117102Y-137272885D02*
X144231387Y-137215742D01*
X145259959Y-138415742D02*
X145259959Y-137215742D01*
X145259959Y-137215742D02*
X145659959Y-138072885D01*
X145659959Y-138072885D02*
X146059959Y-137215742D01*
X146059959Y-137215742D02*
X146059959Y-138415742D01*
X146631388Y-137787171D02*
X147031388Y-137787171D01*
X147202816Y-138415742D02*
X146631388Y-138415742D01*
X146631388Y-138415742D02*
X146631388Y-137215742D01*
X146631388Y-137215742D02*
X147202816Y-137215742D01*
X147545673Y-137215742D02*
X148231388Y-137215742D01*
X147888530Y-138415742D02*
X147888530Y-137215742D01*
X148631388Y-138415742D02*
X148631388Y-137215742D01*
X148631388Y-137787171D02*
X149317102Y-137787171D01*
X149317102Y-138415742D02*
X149317102Y-137215742D01*
X149888531Y-137787171D02*
X150288531Y-137787171D01*
X150459959Y-138415742D02*
X149888531Y-138415742D01*
X149888531Y-138415742D02*
X149888531Y-137215742D01*
X149888531Y-137215742D02*
X150459959Y-137215742D01*
X150974245Y-137215742D02*
X150974245Y-138187171D01*
X150974245Y-138187171D02*
X151031388Y-138301457D01*
X151031388Y-138301457D02*
X151088531Y-138358600D01*
X151088531Y-138358600D02*
X151202816Y-138415742D01*
X151202816Y-138415742D02*
X151431388Y-138415742D01*
X151431388Y-138415742D02*
X151545673Y-138358600D01*
X151545673Y-138358600D02*
X151602816Y-138301457D01*
X151602816Y-138301457D02*
X151659959Y-138187171D01*
X151659959Y-138187171D02*
X151659959Y-137215742D01*
X152174245Y-138358600D02*
X152345674Y-138415742D01*
X152345674Y-138415742D02*
X152631388Y-138415742D01*
X152631388Y-138415742D02*
X152745674Y-138358600D01*
X152745674Y-138358600D02*
X152802816Y-138301457D01*
X152802816Y-138301457D02*
X152859959Y-138187171D01*
X152859959Y-138187171D02*
X152859959Y-138072885D01*
X152859959Y-138072885D02*
X152802816Y-137958600D01*
X152802816Y-137958600D02*
X152745674Y-137901457D01*
X152745674Y-137901457D02*
X152631388Y-137844314D01*
X152631388Y-137844314D02*
X152402816Y-137787171D01*
X152402816Y-137787171D02*
X152288531Y-137730028D01*
X152288531Y-137730028D02*
X152231388Y-137672885D01*
X152231388Y-137672885D02*
X152174245Y-137558600D01*
X152174245Y-137558600D02*
X152174245Y-137444314D01*
X152174245Y-137444314D02*
X152231388Y-137330028D01*
X152231388Y-137330028D02*
X152288531Y-137272885D01*
X152288531Y-137272885D02*
X152402816Y-137215742D01*
X152402816Y-137215742D02*
X152688531Y-137215742D01*
X152688531Y-137215742D02*
X152859959Y-137272885D01*
X153374245Y-137958600D02*
X154288531Y-137958600D01*
X155488530Y-138415742D02*
X154802816Y-138415742D01*
X155145673Y-138415742D02*
X155145673Y-137215742D01*
X155145673Y-137215742D02*
X155031387Y-137387171D01*
X155031387Y-137387171D02*
X154917102Y-137501457D01*
X154917102Y-137501457D02*
X154802816Y-137558600D01*
X157602816Y-138415742D02*
X157202816Y-137844314D01*
X156917102Y-138415742D02*
X156917102Y-137215742D01*
X156917102Y-137215742D02*
X157374245Y-137215742D01*
X157374245Y-137215742D02*
X157488530Y-137272885D01*
X157488530Y-137272885D02*
X157545673Y-137330028D01*
X157545673Y-137330028D02*
X157602816Y-137444314D01*
X157602816Y-137444314D02*
X157602816Y-137615742D01*
X157602816Y-137615742D02*
X157545673Y-137730028D01*
X157545673Y-137730028D02*
X157488530Y-137787171D01*
X157488530Y-137787171D02*
X157374245Y-137844314D01*
X157374245Y-137844314D02*
X156917102Y-137844314D01*
X158117102Y-138415742D02*
X158117102Y-137215742D01*
X158117102Y-137215742D02*
X158574245Y-137215742D01*
X158574245Y-137215742D02*
X158688530Y-137272885D01*
X158688530Y-137272885D02*
X158745673Y-137330028D01*
X158745673Y-137330028D02*
X158802816Y-137444314D01*
X158802816Y-137444314D02*
X158802816Y-137615742D01*
X158802816Y-137615742D02*
X158745673Y-137730028D01*
X158745673Y-137730028D02*
X158688530Y-137787171D01*
X158688530Y-137787171D02*
X158574245Y-137844314D01*
X158574245Y-137844314D02*
X158117102Y-137844314D01*
X159317102Y-138415742D02*
X159317102Y-137615742D01*
X159317102Y-137215742D02*
X159259959Y-137272885D01*
X159259959Y-137272885D02*
X159317102Y-137330028D01*
X159317102Y-137330028D02*
X159374245Y-137272885D01*
X159374245Y-137272885D02*
X159317102Y-137215742D01*
X159317102Y-137215742D02*
X159317102Y-137330028D01*
X161431388Y-137272885D02*
X161317103Y-137215742D01*
X161317103Y-137215742D02*
X161145674Y-137215742D01*
X161145674Y-137215742D02*
X160974245Y-137272885D01*
X160974245Y-137272885D02*
X160859960Y-137387171D01*
X160859960Y-137387171D02*
X160802817Y-137501457D01*
X160802817Y-137501457D02*
X160745674Y-137730028D01*
X160745674Y-137730028D02*
X160745674Y-137901457D01*
X160745674Y-137901457D02*
X160802817Y-138130028D01*
X160802817Y-138130028D02*
X160859960Y-138244314D01*
X160859960Y-138244314D02*
X160974245Y-138358600D01*
X160974245Y-138358600D02*
X161145674Y-138415742D01*
X161145674Y-138415742D02*
X161259960Y-138415742D01*
X161259960Y-138415742D02*
X161431388Y-138358600D01*
X161431388Y-138358600D02*
X161488531Y-138301457D01*
X161488531Y-138301457D02*
X161488531Y-137901457D01*
X161488531Y-137901457D02*
X161259960Y-137901457D01*
X161945674Y-138358600D02*
X162117103Y-138415742D01*
X162117103Y-138415742D02*
X162402817Y-138415742D01*
X162402817Y-138415742D02*
X162517103Y-138358600D01*
X162517103Y-138358600D02*
X162574245Y-138301457D01*
X162574245Y-138301457D02*
X162631388Y-138187171D01*
X162631388Y-138187171D02*
X162631388Y-138072885D01*
X162631388Y-138072885D02*
X162574245Y-137958600D01*
X162574245Y-137958600D02*
X162517103Y-137901457D01*
X162517103Y-137901457D02*
X162402817Y-137844314D01*
X162402817Y-137844314D02*
X162174245Y-137787171D01*
X162174245Y-137787171D02*
X162059960Y-137730028D01*
X162059960Y-137730028D02*
X162002817Y-137672885D01*
X162002817Y-137672885D02*
X161945674Y-137558600D01*
X161945674Y-137558600D02*
X161945674Y-137444314D01*
X161945674Y-137444314D02*
X162002817Y-137330028D01*
X162002817Y-137330028D02*
X162059960Y-137272885D01*
X162059960Y-137272885D02*
X162174245Y-137215742D01*
X162174245Y-137215742D02*
X162459960Y-137215742D01*
X162459960Y-137215742D02*
X162631388Y-137272885D01*
D10*
X141522303Y-138942819D02*
X141522303Y-139752342D01*
X141522303Y-139752342D02*
X141569922Y-139847580D01*
X141569922Y-139847580D02*
X141617541Y-139895200D01*
X141617541Y-139895200D02*
X141712779Y-139942819D01*
X141712779Y-139942819D02*
X141903255Y-139942819D01*
X141903255Y-139942819D02*
X141998493Y-139895200D01*
X141998493Y-139895200D02*
X142046112Y-139847580D01*
X142046112Y-139847580D02*
X142093731Y-139752342D01*
X142093731Y-139752342D02*
X142093731Y-138942819D01*
X142569922Y-139276152D02*
X142569922Y-139942819D01*
X142569922Y-139371390D02*
X142617541Y-139323771D01*
X142617541Y-139323771D02*
X142712779Y-139276152D01*
X142712779Y-139276152D02*
X142855636Y-139276152D01*
X142855636Y-139276152D02*
X142950874Y-139323771D01*
X142950874Y-139323771D02*
X142998493Y-139419009D01*
X142998493Y-139419009D02*
X142998493Y-139942819D01*
X143474684Y-139942819D02*
X143474684Y-139276152D01*
X143474684Y-138942819D02*
X143427065Y-138990438D01*
X143427065Y-138990438D02*
X143474684Y-139038057D01*
X143474684Y-139038057D02*
X143522303Y-138990438D01*
X143522303Y-138990438D02*
X143474684Y-138942819D01*
X143474684Y-138942819D02*
X143474684Y-139038057D01*
X143855636Y-139276152D02*
X144093731Y-139942819D01*
X144093731Y-139942819D02*
X144331826Y-139276152D01*
X145093731Y-139895200D02*
X144998493Y-139942819D01*
X144998493Y-139942819D02*
X144808017Y-139942819D01*
X144808017Y-139942819D02*
X144712779Y-139895200D01*
X144712779Y-139895200D02*
X144665160Y-139799961D01*
X144665160Y-139799961D02*
X144665160Y-139419009D01*
X144665160Y-139419009D02*
X144712779Y-139323771D01*
X144712779Y-139323771D02*
X144808017Y-139276152D01*
X144808017Y-139276152D02*
X144998493Y-139276152D01*
X144998493Y-139276152D02*
X145093731Y-139323771D01*
X145093731Y-139323771D02*
X145141350Y-139419009D01*
X145141350Y-139419009D02*
X145141350Y-139514247D01*
X145141350Y-139514247D02*
X144665160Y-139609485D01*
X145569922Y-139942819D02*
X145569922Y-139276152D01*
X145569922Y-139466628D02*
X145617541Y-139371390D01*
X145617541Y-139371390D02*
X145665160Y-139323771D01*
X145665160Y-139323771D02*
X145760398Y-139276152D01*
X145760398Y-139276152D02*
X145855636Y-139276152D01*
X146141351Y-139895200D02*
X146236589Y-139942819D01*
X146236589Y-139942819D02*
X146427065Y-139942819D01*
X146427065Y-139942819D02*
X146522303Y-139895200D01*
X146522303Y-139895200D02*
X146569922Y-139799961D01*
X146569922Y-139799961D02*
X146569922Y-139752342D01*
X146569922Y-139752342D02*
X146522303Y-139657104D01*
X146522303Y-139657104D02*
X146427065Y-139609485D01*
X146427065Y-139609485D02*
X146284208Y-139609485D01*
X146284208Y-139609485D02*
X146188970Y-139561866D01*
X146188970Y-139561866D02*
X146141351Y-139466628D01*
X146141351Y-139466628D02*
X146141351Y-139419009D01*
X146141351Y-139419009D02*
X146188970Y-139323771D01*
X146188970Y-139323771D02*
X146284208Y-139276152D01*
X146284208Y-139276152D02*
X146427065Y-139276152D01*
X146427065Y-139276152D02*
X146522303Y-139323771D01*
X146998494Y-139942819D02*
X146998494Y-139276152D01*
X146998494Y-138942819D02*
X146950875Y-138990438D01*
X146950875Y-138990438D02*
X146998494Y-139038057D01*
X146998494Y-139038057D02*
X147046113Y-138990438D01*
X147046113Y-138990438D02*
X146998494Y-138942819D01*
X146998494Y-138942819D02*
X146998494Y-139038057D01*
X147903255Y-139942819D02*
X147903255Y-138942819D01*
X147903255Y-139895200D02*
X147808017Y-139942819D01*
X147808017Y-139942819D02*
X147617541Y-139942819D01*
X147617541Y-139942819D02*
X147522303Y-139895200D01*
X147522303Y-139895200D02*
X147474684Y-139847580D01*
X147474684Y-139847580D02*
X147427065Y-139752342D01*
X147427065Y-139752342D02*
X147427065Y-139466628D01*
X147427065Y-139466628D02*
X147474684Y-139371390D01*
X147474684Y-139371390D02*
X147522303Y-139323771D01*
X147522303Y-139323771D02*
X147617541Y-139276152D01*
X147617541Y-139276152D02*
X147808017Y-139276152D01*
X147808017Y-139276152D02*
X147903255Y-139323771D01*
X148808017Y-139942819D02*
X148808017Y-139419009D01*
X148808017Y-139419009D02*
X148760398Y-139323771D01*
X148760398Y-139323771D02*
X148665160Y-139276152D01*
X148665160Y-139276152D02*
X148474684Y-139276152D01*
X148474684Y-139276152D02*
X148379446Y-139323771D01*
X148808017Y-139895200D02*
X148712779Y-139942819D01*
X148712779Y-139942819D02*
X148474684Y-139942819D01*
X148474684Y-139942819D02*
X148379446Y-139895200D01*
X148379446Y-139895200D02*
X148331827Y-139799961D01*
X148331827Y-139799961D02*
X148331827Y-139704723D01*
X148331827Y-139704723D02*
X148379446Y-139609485D01*
X148379446Y-139609485D02*
X148474684Y-139561866D01*
X148474684Y-139561866D02*
X148712779Y-139561866D01*
X148712779Y-139561866D02*
X148808017Y-139514247D01*
X149712779Y-139942819D02*
X149712779Y-138942819D01*
X149712779Y-139895200D02*
X149617541Y-139942819D01*
X149617541Y-139942819D02*
X149427065Y-139942819D01*
X149427065Y-139942819D02*
X149331827Y-139895200D01*
X149331827Y-139895200D02*
X149284208Y-139847580D01*
X149284208Y-139847580D02*
X149236589Y-139752342D01*
X149236589Y-139752342D02*
X149236589Y-139466628D01*
X149236589Y-139466628D02*
X149284208Y-139371390D01*
X149284208Y-139371390D02*
X149331827Y-139323771D01*
X149331827Y-139323771D02*
X149427065Y-139276152D01*
X149427065Y-139276152D02*
X149617541Y-139276152D01*
X149617541Y-139276152D02*
X149712779Y-139323771D01*
X150569922Y-139895200D02*
X150474684Y-139942819D01*
X150474684Y-139942819D02*
X150284208Y-139942819D01*
X150284208Y-139942819D02*
X150188970Y-139895200D01*
X150188970Y-139895200D02*
X150141351Y-139799961D01*
X150141351Y-139799961D02*
X150141351Y-139419009D01*
X150141351Y-139419009D02*
X150188970Y-139323771D01*
X150188970Y-139323771D02*
X150284208Y-139276152D01*
X150284208Y-139276152D02*
X150474684Y-139276152D01*
X150474684Y-139276152D02*
X150569922Y-139323771D01*
X150569922Y-139323771D02*
X150617541Y-139419009D01*
X150617541Y-139419009D02*
X150617541Y-139514247D01*
X150617541Y-139514247D02*
X150141351Y-139609485D01*
X152236589Y-139942819D02*
X152236589Y-138942819D01*
X152236589Y-139895200D02*
X152141351Y-139942819D01*
X152141351Y-139942819D02*
X151950875Y-139942819D01*
X151950875Y-139942819D02*
X151855637Y-139895200D01*
X151855637Y-139895200D02*
X151808018Y-139847580D01*
X151808018Y-139847580D02*
X151760399Y-139752342D01*
X151760399Y-139752342D02*
X151760399Y-139466628D01*
X151760399Y-139466628D02*
X151808018Y-139371390D01*
X151808018Y-139371390D02*
X151855637Y-139323771D01*
X151855637Y-139323771D02*
X151950875Y-139276152D01*
X151950875Y-139276152D02*
X152141351Y-139276152D01*
X152141351Y-139276152D02*
X152236589Y-139323771D01*
X152855637Y-139942819D02*
X152760399Y-139895200D01*
X152760399Y-139895200D02*
X152712780Y-139847580D01*
X152712780Y-139847580D02*
X152665161Y-139752342D01*
X152665161Y-139752342D02*
X152665161Y-139466628D01*
X152665161Y-139466628D02*
X152712780Y-139371390D01*
X152712780Y-139371390D02*
X152760399Y-139323771D01*
X152760399Y-139323771D02*
X152855637Y-139276152D01*
X152855637Y-139276152D02*
X152998494Y-139276152D01*
X152998494Y-139276152D02*
X153093732Y-139323771D01*
X153093732Y-139323771D02*
X153141351Y-139371390D01*
X153141351Y-139371390D02*
X153188970Y-139466628D01*
X153188970Y-139466628D02*
X153188970Y-139752342D01*
X153188970Y-139752342D02*
X153141351Y-139847580D01*
X153141351Y-139847580D02*
X153093732Y-139895200D01*
X153093732Y-139895200D02*
X152998494Y-139942819D01*
X152998494Y-139942819D02*
X152855637Y-139942819D01*
X154379447Y-139942819D02*
X154379447Y-138942819D01*
X154379447Y-138942819D02*
X154712780Y-139657104D01*
X154712780Y-139657104D02*
X155046113Y-138942819D01*
X155046113Y-138942819D02*
X155046113Y-139942819D01*
X155522304Y-139942819D02*
X155522304Y-139276152D01*
X155522304Y-138942819D02*
X155474685Y-138990438D01*
X155474685Y-138990438D02*
X155522304Y-139038057D01*
X155522304Y-139038057D02*
X155569923Y-138990438D01*
X155569923Y-138990438D02*
X155522304Y-138942819D01*
X155522304Y-138942819D02*
X155522304Y-139038057D01*
X155998494Y-139276152D02*
X155998494Y-139942819D01*
X155998494Y-139371390D02*
X156046113Y-139323771D01*
X156046113Y-139323771D02*
X156141351Y-139276152D01*
X156141351Y-139276152D02*
X156284208Y-139276152D01*
X156284208Y-139276152D02*
X156379446Y-139323771D01*
X156379446Y-139323771D02*
X156427065Y-139419009D01*
X156427065Y-139419009D02*
X156427065Y-139942819D01*
X156903256Y-139942819D02*
X156903256Y-138942819D01*
X157331827Y-139942819D02*
X157331827Y-139419009D01*
X157331827Y-139419009D02*
X157284208Y-139323771D01*
X157284208Y-139323771D02*
X157188970Y-139276152D01*
X157188970Y-139276152D02*
X157046113Y-139276152D01*
X157046113Y-139276152D02*
X156950875Y-139323771D01*
X156950875Y-139323771D02*
X156903256Y-139371390D01*
X157950875Y-139942819D02*
X157855637Y-139895200D01*
X157855637Y-139895200D02*
X157808018Y-139847580D01*
X157808018Y-139847580D02*
X157760399Y-139752342D01*
X157760399Y-139752342D02*
X157760399Y-139466628D01*
X157760399Y-139466628D02*
X157808018Y-139371390D01*
X157808018Y-139371390D02*
X157855637Y-139323771D01*
X157855637Y-139323771D02*
X157950875Y-139276152D01*
X157950875Y-139276152D02*
X158093732Y-139276152D01*
X158093732Y-139276152D02*
X158188970Y-139323771D01*
X158188970Y-139323771D02*
X158236589Y-139371390D01*
X158236589Y-139371390D02*
X158284208Y-139466628D01*
X158284208Y-139466628D02*
X158284208Y-139752342D01*
X158284208Y-139752342D02*
X158236589Y-139847580D01*
X158236589Y-139847580D02*
X158188970Y-139895200D01*
X158188970Y-139895200D02*
X158093732Y-139942819D01*
X158093732Y-139942819D02*
X157950875Y-139942819D01*
X107755343Y-141166666D02*
X108755343Y-140833333D01*
X108755343Y-140833333D02*
X107755343Y-140500000D01*
X108850581Y-140404762D02*
X108850581Y-139642857D01*
X108755343Y-138833333D02*
X108279152Y-139166666D01*
X108755343Y-139404761D02*
X107755343Y-139404761D01*
X107755343Y-139404761D02*
X107755343Y-139023809D01*
X107755343Y-139023809D02*
X107802962Y-138928571D01*
X107802962Y-138928571D02*
X107850581Y-138880952D01*
X107850581Y-138880952D02*
X107945819Y-138833333D01*
X107945819Y-138833333D02*
X108088676Y-138833333D01*
X108088676Y-138833333D02*
X108183914Y-138880952D01*
X108183914Y-138880952D02*
X108231533Y-138928571D01*
X108231533Y-138928571D02*
X108279152Y-139023809D01*
X108279152Y-139023809D02*
X108279152Y-139404761D01*
X108231533Y-138404761D02*
X108231533Y-138071428D01*
X108755343Y-137928571D02*
X108755343Y-138404761D01*
X108755343Y-138404761D02*
X107755343Y-138404761D01*
X107755343Y-138404761D02*
X107755343Y-137928571D01*
X107802962Y-136976190D02*
X107755343Y-137071428D01*
X107755343Y-137071428D02*
X107755343Y-137214285D01*
X107755343Y-137214285D02*
X107802962Y-137357142D01*
X107802962Y-137357142D02*
X107898200Y-137452380D01*
X107898200Y-137452380D02*
X107993438Y-137499999D01*
X107993438Y-137499999D02*
X108183914Y-137547618D01*
X108183914Y-137547618D02*
X108326771Y-137547618D01*
X108326771Y-137547618D02*
X108517247Y-137499999D01*
X108517247Y-137499999D02*
X108612485Y-137452380D01*
X108612485Y-137452380D02*
X108707724Y-137357142D01*
X108707724Y-137357142D02*
X108755343Y-137214285D01*
X108755343Y-137214285D02*
X108755343Y-137119047D01*
X108755343Y-137119047D02*
X108707724Y-136976190D01*
X108707724Y-136976190D02*
X108660104Y-136928571D01*
X108660104Y-136928571D02*
X108326771Y-136928571D01*
X108326771Y-136928571D02*
X108326771Y-137119047D01*
X130154343Y-142787666D02*
X129678152Y-143120999D01*
X130154343Y-143359094D02*
X129154343Y-143359094D01*
X129154343Y-143359094D02*
X129154343Y-142978142D01*
X129154343Y-142978142D02*
X129201962Y-142882904D01*
X129201962Y-142882904D02*
X129249581Y-142835285D01*
X129249581Y-142835285D02*
X129344819Y-142787666D01*
X129344819Y-142787666D02*
X129487676Y-142787666D01*
X129487676Y-142787666D02*
X129582914Y-142835285D01*
X129582914Y-142835285D02*
X129630533Y-142882904D01*
X129630533Y-142882904D02*
X129678152Y-142978142D01*
X129678152Y-142978142D02*
X129678152Y-143359094D01*
X129154343Y-141882904D02*
X129154343Y-142359094D01*
X129154343Y-142359094D02*
X129630533Y-142406713D01*
X129630533Y-142406713D02*
X129582914Y-142359094D01*
X129582914Y-142359094D02*
X129535295Y-142263856D01*
X129535295Y-142263856D02*
X129535295Y-142025761D01*
X129535295Y-142025761D02*
X129582914Y-141930523D01*
X129582914Y-141930523D02*
X129630533Y-141882904D01*
X129630533Y-141882904D02*
X129725771Y-141835285D01*
X129725771Y-141835285D02*
X129963866Y-141835285D01*
X129963866Y-141835285D02*
X130059104Y-141882904D01*
X130059104Y-141882904D02*
X130106724Y-141930523D01*
X130106724Y-141930523D02*
X130154343Y-142025761D01*
X130154343Y-142025761D02*
X130154343Y-142263856D01*
X130154343Y-142263856D02*
X130106724Y-142359094D01*
X130106724Y-142359094D02*
X130059104Y-142406713D01*
X115613343Y-129420857D02*
X115137152Y-129754190D01*
X115613343Y-129992285D02*
X114613343Y-129992285D01*
X114613343Y-129992285D02*
X114613343Y-129611333D01*
X114613343Y-129611333D02*
X114660962Y-129516095D01*
X114660962Y-129516095D02*
X114708581Y-129468476D01*
X114708581Y-129468476D02*
X114803819Y-129420857D01*
X114803819Y-129420857D02*
X114946676Y-129420857D01*
X114946676Y-129420857D02*
X115041914Y-129468476D01*
X115041914Y-129468476D02*
X115089533Y-129516095D01*
X115089533Y-129516095D02*
X115137152Y-129611333D01*
X115137152Y-129611333D02*
X115137152Y-129992285D01*
X115613343Y-128468476D02*
X115613343Y-129039904D01*
X115613343Y-128754190D02*
X114613343Y-128754190D01*
X114613343Y-128754190D02*
X114756200Y-128849428D01*
X114756200Y-128849428D02*
X114851438Y-128944666D01*
X114851438Y-128944666D02*
X114899057Y-129039904D01*
X114613343Y-127849428D02*
X114613343Y-127754190D01*
X114613343Y-127754190D02*
X114660962Y-127658952D01*
X114660962Y-127658952D02*
X114708581Y-127611333D01*
X114708581Y-127611333D02*
X114803819Y-127563714D01*
X114803819Y-127563714D02*
X114994295Y-127516095D01*
X114994295Y-127516095D02*
X115232390Y-127516095D01*
X115232390Y-127516095D02*
X115422866Y-127563714D01*
X115422866Y-127563714D02*
X115518104Y-127611333D01*
X115518104Y-127611333D02*
X115565724Y-127658952D01*
X115565724Y-127658952D02*
X115613343Y-127754190D01*
X115613343Y-127754190D02*
X115613343Y-127849428D01*
X115613343Y-127849428D02*
X115565724Y-127944666D01*
X115565724Y-127944666D02*
X115518104Y-127992285D01*
X115518104Y-127992285D02*
X115422866Y-128039904D01*
X115422866Y-128039904D02*
X115232390Y-128087523D01*
X115232390Y-128087523D02*
X114994295Y-128087523D01*
X114994295Y-128087523D02*
X114803819Y-128039904D01*
X114803819Y-128039904D02*
X114708581Y-127992285D01*
X114708581Y-127992285D02*
X114660962Y-127944666D01*
X114660962Y-127944666D02*
X114613343Y-127849428D01*
X122836823Y-143803666D02*
X122360632Y-144136999D01*
X122836823Y-144375094D02*
X121836823Y-144375094D01*
X121836823Y-144375094D02*
X121836823Y-143994142D01*
X121836823Y-143994142D02*
X121884442Y-143898904D01*
X121884442Y-143898904D02*
X121932061Y-143851285D01*
X121932061Y-143851285D02*
X122027299Y-143803666D01*
X122027299Y-143803666D02*
X122170156Y-143803666D01*
X122170156Y-143803666D02*
X122265394Y-143851285D01*
X122265394Y-143851285D02*
X122313013Y-143898904D01*
X122313013Y-143898904D02*
X122360632Y-143994142D01*
X122360632Y-143994142D02*
X122360632Y-144375094D01*
X121836823Y-143470332D02*
X121836823Y-142851285D01*
X121836823Y-142851285D02*
X122217775Y-143184618D01*
X122217775Y-143184618D02*
X122217775Y-143041761D01*
X122217775Y-143041761D02*
X122265394Y-142946523D01*
X122265394Y-142946523D02*
X122313013Y-142898904D01*
X122313013Y-142898904D02*
X122408251Y-142851285D01*
X122408251Y-142851285D02*
X122646346Y-142851285D01*
X122646346Y-142851285D02*
X122741584Y-142898904D01*
X122741584Y-142898904D02*
X122789204Y-142946523D01*
X122789204Y-142946523D02*
X122836823Y-143041761D01*
X122836823Y-143041761D02*
X122836823Y-143327475D01*
X122836823Y-143327475D02*
X122789204Y-143422713D01*
X122789204Y-143422713D02*
X122741584Y-143470332D01*
X120693343Y-119228666D02*
X120217152Y-119561999D01*
X120693343Y-119800094D02*
X119693343Y-119800094D01*
X119693343Y-119800094D02*
X119693343Y-119419142D01*
X119693343Y-119419142D02*
X119740962Y-119323904D01*
X119740962Y-119323904D02*
X119788581Y-119276285D01*
X119788581Y-119276285D02*
X119883819Y-119228666D01*
X119883819Y-119228666D02*
X120026676Y-119228666D01*
X120026676Y-119228666D02*
X120121914Y-119276285D01*
X120121914Y-119276285D02*
X120169533Y-119323904D01*
X120169533Y-119323904D02*
X120217152Y-119419142D01*
X120217152Y-119419142D02*
X120217152Y-119800094D01*
X119788581Y-118847713D02*
X119740962Y-118800094D01*
X119740962Y-118800094D02*
X119693343Y-118704856D01*
X119693343Y-118704856D02*
X119693343Y-118466761D01*
X119693343Y-118466761D02*
X119740962Y-118371523D01*
X119740962Y-118371523D02*
X119788581Y-118323904D01*
X119788581Y-118323904D02*
X119883819Y-118276285D01*
X119883819Y-118276285D02*
X119979057Y-118276285D01*
X119979057Y-118276285D02*
X120121914Y-118323904D01*
X120121914Y-118323904D02*
X120693343Y-118895332D01*
X120693343Y-118895332D02*
X120693343Y-118276285D01*
X112145624Y-131666666D02*
X112193244Y-131714285D01*
X112193244Y-131714285D02*
X112240863Y-131857142D01*
X112240863Y-131857142D02*
X112240863Y-131952380D01*
X112240863Y-131952380D02*
X112193244Y-132095237D01*
X112193244Y-132095237D02*
X112098005Y-132190475D01*
X112098005Y-132190475D02*
X112002767Y-132238094D01*
X112002767Y-132238094D02*
X111812291Y-132285713D01*
X111812291Y-132285713D02*
X111669434Y-132285713D01*
X111669434Y-132285713D02*
X111478958Y-132238094D01*
X111478958Y-132238094D02*
X111383720Y-132190475D01*
X111383720Y-132190475D02*
X111288482Y-132095237D01*
X111288482Y-132095237D02*
X111240863Y-131952380D01*
X111240863Y-131952380D02*
X111240863Y-131857142D01*
X111240863Y-131857142D02*
X111288482Y-131714285D01*
X111288482Y-131714285D02*
X111336101Y-131666666D01*
X111240863Y-131333332D02*
X111240863Y-130714285D01*
X111240863Y-130714285D02*
X111621815Y-131047618D01*
X111621815Y-131047618D02*
X111621815Y-130904761D01*
X111621815Y-130904761D02*
X111669434Y-130809523D01*
X111669434Y-130809523D02*
X111717053Y-130761904D01*
X111717053Y-130761904D02*
X111812291Y-130714285D01*
X111812291Y-130714285D02*
X112050386Y-130714285D01*
X112050386Y-130714285D02*
X112145624Y-130761904D01*
X112145624Y-130761904D02*
X112193244Y-130809523D01*
X112193244Y-130809523D02*
X112240863Y-130904761D01*
X112240863Y-130904761D02*
X112240863Y-131190475D01*
X112240863Y-131190475D02*
X112193244Y-131285713D01*
X112193244Y-131285713D02*
X112145624Y-131333332D01*
X118312104Y-125134666D02*
X118359724Y-125182285D01*
X118359724Y-125182285D02*
X118407343Y-125325142D01*
X118407343Y-125325142D02*
X118407343Y-125420380D01*
X118407343Y-125420380D02*
X118359724Y-125563237D01*
X118359724Y-125563237D02*
X118264485Y-125658475D01*
X118264485Y-125658475D02*
X118169247Y-125706094D01*
X118169247Y-125706094D02*
X117978771Y-125753713D01*
X117978771Y-125753713D02*
X117835914Y-125753713D01*
X117835914Y-125753713D02*
X117645438Y-125706094D01*
X117645438Y-125706094D02*
X117550200Y-125658475D01*
X117550200Y-125658475D02*
X117454962Y-125563237D01*
X117454962Y-125563237D02*
X117407343Y-125420380D01*
X117407343Y-125420380D02*
X117407343Y-125325142D01*
X117407343Y-125325142D02*
X117454962Y-125182285D01*
X117454962Y-125182285D02*
X117502581Y-125134666D01*
X117407343Y-124229904D02*
X117407343Y-124706094D01*
X117407343Y-124706094D02*
X117883533Y-124753713D01*
X117883533Y-124753713D02*
X117835914Y-124706094D01*
X117835914Y-124706094D02*
X117788295Y-124610856D01*
X117788295Y-124610856D02*
X117788295Y-124372761D01*
X117788295Y-124372761D02*
X117835914Y-124277523D01*
X117835914Y-124277523D02*
X117883533Y-124229904D01*
X117883533Y-124229904D02*
X117978771Y-124182285D01*
X117978771Y-124182285D02*
X118216866Y-124182285D01*
X118216866Y-124182285D02*
X118312104Y-124229904D01*
X118312104Y-124229904D02*
X118359724Y-124277523D01*
X118359724Y-124277523D02*
X118407343Y-124372761D01*
X118407343Y-124372761D02*
X118407343Y-124610856D01*
X118407343Y-124610856D02*
X118359724Y-124706094D01*
X118359724Y-124706094D02*
X118312104Y-124753713D01*
X161365104Y-111747166D02*
X161412724Y-111794785D01*
X161412724Y-111794785D02*
X161460343Y-111937642D01*
X161460343Y-111937642D02*
X161460343Y-112032880D01*
X161460343Y-112032880D02*
X161412724Y-112175737D01*
X161412724Y-112175737D02*
X161317485Y-112270975D01*
X161317485Y-112270975D02*
X161222247Y-112318594D01*
X161222247Y-112318594D02*
X161031771Y-112366213D01*
X161031771Y-112366213D02*
X160888914Y-112366213D01*
X160888914Y-112366213D02*
X160698438Y-112318594D01*
X160698438Y-112318594D02*
X160603200Y-112270975D01*
X160603200Y-112270975D02*
X160507962Y-112175737D01*
X160507962Y-112175737D02*
X160460343Y-112032880D01*
X160460343Y-112032880D02*
X160460343Y-111937642D01*
X160460343Y-111937642D02*
X160507962Y-111794785D01*
X160507962Y-111794785D02*
X160555581Y-111747166D01*
X160555581Y-111366213D02*
X160507962Y-111318594D01*
X160507962Y-111318594D02*
X160460343Y-111223356D01*
X160460343Y-111223356D02*
X160460343Y-110985261D01*
X160460343Y-110985261D02*
X160507962Y-110890023D01*
X160507962Y-110890023D02*
X160555581Y-110842404D01*
X160555581Y-110842404D02*
X160650819Y-110794785D01*
X160650819Y-110794785D02*
X160746057Y-110794785D01*
X160746057Y-110794785D02*
X160888914Y-110842404D01*
X160888914Y-110842404D02*
X161460343Y-111413832D01*
X161460343Y-111413832D02*
X161460343Y-110794785D01*
X118280343Y-108973857D02*
X117804152Y-109307190D01*
X118280343Y-109545285D02*
X117280343Y-109545285D01*
X117280343Y-109545285D02*
X117280343Y-109164333D01*
X117280343Y-109164333D02*
X117327962Y-109069095D01*
X117327962Y-109069095D02*
X117375581Y-109021476D01*
X117375581Y-109021476D02*
X117470819Y-108973857D01*
X117470819Y-108973857D02*
X117613676Y-108973857D01*
X117613676Y-108973857D02*
X117708914Y-109021476D01*
X117708914Y-109021476D02*
X117756533Y-109069095D01*
X117756533Y-109069095D02*
X117804152Y-109164333D01*
X117804152Y-109164333D02*
X117804152Y-109545285D01*
X118280343Y-108021476D02*
X118280343Y-108592904D01*
X118280343Y-108307190D02*
X117280343Y-108307190D01*
X117280343Y-108307190D02*
X117423200Y-108402428D01*
X117423200Y-108402428D02*
X117518438Y-108497666D01*
X117518438Y-108497666D02*
X117566057Y-108592904D01*
X117375581Y-107640523D02*
X117327962Y-107592904D01*
X117327962Y-107592904D02*
X117280343Y-107497666D01*
X117280343Y-107497666D02*
X117280343Y-107259571D01*
X117280343Y-107259571D02*
X117327962Y-107164333D01*
X117327962Y-107164333D02*
X117375581Y-107116714D01*
X117375581Y-107116714D02*
X117470819Y-107069095D01*
X117470819Y-107069095D02*
X117566057Y-107069095D01*
X117566057Y-107069095D02*
X117708914Y-107116714D01*
X117708914Y-107116714D02*
X118280343Y-107688142D01*
X118280343Y-107688142D02*
X118280343Y-107069095D01*
X112145624Y-137666666D02*
X112193244Y-137714285D01*
X112193244Y-137714285D02*
X112240863Y-137857142D01*
X112240863Y-137857142D02*
X112240863Y-137952380D01*
X112240863Y-137952380D02*
X112193244Y-138095237D01*
X112193244Y-138095237D02*
X112098005Y-138190475D01*
X112098005Y-138190475D02*
X112002767Y-138238094D01*
X112002767Y-138238094D02*
X111812291Y-138285713D01*
X111812291Y-138285713D02*
X111669434Y-138285713D01*
X111669434Y-138285713D02*
X111478958Y-138238094D01*
X111478958Y-138238094D02*
X111383720Y-138190475D01*
X111383720Y-138190475D02*
X111288482Y-138095237D01*
X111288482Y-138095237D02*
X111240863Y-137952380D01*
X111240863Y-137952380D02*
X111240863Y-137857142D01*
X111240863Y-137857142D02*
X111288482Y-137714285D01*
X111288482Y-137714285D02*
X111336101Y-137666666D01*
X111574196Y-136809523D02*
X112240863Y-136809523D01*
X111193244Y-137047618D02*
X111907529Y-137285713D01*
X111907529Y-137285713D02*
X111907529Y-136666666D01*
X118193343Y-119228666D02*
X117717152Y-119561999D01*
X118193343Y-119800094D02*
X117193343Y-119800094D01*
X117193343Y-119800094D02*
X117193343Y-119419142D01*
X117193343Y-119419142D02*
X117240962Y-119323904D01*
X117240962Y-119323904D02*
X117288581Y-119276285D01*
X117288581Y-119276285D02*
X117383819Y-119228666D01*
X117383819Y-119228666D02*
X117526676Y-119228666D01*
X117526676Y-119228666D02*
X117621914Y-119276285D01*
X117621914Y-119276285D02*
X117669533Y-119323904D01*
X117669533Y-119323904D02*
X117717152Y-119419142D01*
X117717152Y-119419142D02*
X117717152Y-119800094D01*
X118193343Y-118276285D02*
X118193343Y-118847713D01*
X118193343Y-118561999D02*
X117193343Y-118561999D01*
X117193343Y-118561999D02*
X117336200Y-118657237D01*
X117336200Y-118657237D02*
X117431438Y-118752475D01*
X117431438Y-118752475D02*
X117479057Y-118847713D01*
X120647619Y-108846857D02*
X120171428Y-109180190D01*
X120647619Y-109418285D02*
X119647619Y-109418285D01*
X119647619Y-109418285D02*
X119647619Y-109037333D01*
X119647619Y-109037333D02*
X119695238Y-108942095D01*
X119695238Y-108942095D02*
X119742857Y-108894476D01*
X119742857Y-108894476D02*
X119838095Y-108846857D01*
X119838095Y-108846857D02*
X119980952Y-108846857D01*
X119980952Y-108846857D02*
X120076190Y-108894476D01*
X120076190Y-108894476D02*
X120123809Y-108942095D01*
X120123809Y-108942095D02*
X120171428Y-109037333D01*
X120171428Y-109037333D02*
X120171428Y-109418285D01*
X120647619Y-107894476D02*
X120647619Y-108465904D01*
X120647619Y-108180190D02*
X119647619Y-108180190D01*
X119647619Y-108180190D02*
X119790476Y-108275428D01*
X119790476Y-108275428D02*
X119885714Y-108370666D01*
X119885714Y-108370666D02*
X119933333Y-108465904D01*
X120647619Y-106942095D02*
X120647619Y-107513523D01*
X120647619Y-107227809D02*
X119647619Y-107227809D01*
X119647619Y-107227809D02*
X119790476Y-107323047D01*
X119790476Y-107323047D02*
X119885714Y-107418285D01*
X119885714Y-107418285D02*
X119933333Y-107513523D01*
X163365104Y-111747166D02*
X163412724Y-111794785D01*
X163412724Y-111794785D02*
X163460343Y-111937642D01*
X163460343Y-111937642D02*
X163460343Y-112032880D01*
X163460343Y-112032880D02*
X163412724Y-112175737D01*
X163412724Y-112175737D02*
X163317485Y-112270975D01*
X163317485Y-112270975D02*
X163222247Y-112318594D01*
X163222247Y-112318594D02*
X163031771Y-112366213D01*
X163031771Y-112366213D02*
X162888914Y-112366213D01*
X162888914Y-112366213D02*
X162698438Y-112318594D01*
X162698438Y-112318594D02*
X162603200Y-112270975D01*
X162603200Y-112270975D02*
X162507962Y-112175737D01*
X162507962Y-112175737D02*
X162460343Y-112032880D01*
X162460343Y-112032880D02*
X162460343Y-111937642D01*
X162460343Y-111937642D02*
X162507962Y-111794785D01*
X162507962Y-111794785D02*
X162555581Y-111747166D01*
X163460343Y-110794785D02*
X163460343Y-111366213D01*
X163460343Y-111080499D02*
X162460343Y-111080499D01*
X162460343Y-111080499D02*
X162603200Y-111175737D01*
X162603200Y-111175737D02*
X162698438Y-111270975D01*
X162698438Y-111270975D02*
X162746057Y-111366213D01*
X127454819Y-136564666D02*
X126978628Y-136897999D01*
X127454819Y-137136094D02*
X126454819Y-137136094D01*
X126454819Y-137136094D02*
X126454819Y-136755142D01*
X126454819Y-136755142D02*
X126502438Y-136659904D01*
X126502438Y-136659904D02*
X126550057Y-136612285D01*
X126550057Y-136612285D02*
X126645295Y-136564666D01*
X126645295Y-136564666D02*
X126788152Y-136564666D01*
X126788152Y-136564666D02*
X126883390Y-136612285D01*
X126883390Y-136612285D02*
X126931009Y-136659904D01*
X126931009Y-136659904D02*
X126978628Y-136755142D01*
X126978628Y-136755142D02*
X126978628Y-137136094D01*
X126788152Y-135707523D02*
X127454819Y-135707523D01*
X126407200Y-135945618D02*
X127121485Y-136183713D01*
X127121485Y-136183713D02*
X127121485Y-135564666D01*
X120598104Y-125134666D02*
X120645724Y-125182285D01*
X120645724Y-125182285D02*
X120693343Y-125325142D01*
X120693343Y-125325142D02*
X120693343Y-125420380D01*
X120693343Y-125420380D02*
X120645724Y-125563237D01*
X120645724Y-125563237D02*
X120550485Y-125658475D01*
X120550485Y-125658475D02*
X120455247Y-125706094D01*
X120455247Y-125706094D02*
X120264771Y-125753713D01*
X120264771Y-125753713D02*
X120121914Y-125753713D01*
X120121914Y-125753713D02*
X119931438Y-125706094D01*
X119931438Y-125706094D02*
X119836200Y-125658475D01*
X119836200Y-125658475D02*
X119740962Y-125563237D01*
X119740962Y-125563237D02*
X119693343Y-125420380D01*
X119693343Y-125420380D02*
X119693343Y-125325142D01*
X119693343Y-125325142D02*
X119740962Y-125182285D01*
X119740962Y-125182285D02*
X119788581Y-125134666D01*
X119693343Y-124277523D02*
X119693343Y-124467999D01*
X119693343Y-124467999D02*
X119740962Y-124563237D01*
X119740962Y-124563237D02*
X119788581Y-124610856D01*
X119788581Y-124610856D02*
X119931438Y-124706094D01*
X119931438Y-124706094D02*
X120121914Y-124753713D01*
X120121914Y-124753713D02*
X120502866Y-124753713D01*
X120502866Y-124753713D02*
X120598104Y-124706094D01*
X120598104Y-124706094D02*
X120645724Y-124658475D01*
X120645724Y-124658475D02*
X120693343Y-124563237D01*
X120693343Y-124563237D02*
X120693343Y-124372761D01*
X120693343Y-124372761D02*
X120645724Y-124277523D01*
X120645724Y-124277523D02*
X120598104Y-124229904D01*
X120598104Y-124229904D02*
X120502866Y-124182285D01*
X120502866Y-124182285D02*
X120264771Y-124182285D01*
X120264771Y-124182285D02*
X120169533Y-124229904D01*
X120169533Y-124229904D02*
X120121914Y-124277523D01*
X120121914Y-124277523D02*
X120074295Y-124372761D01*
X120074295Y-124372761D02*
X120074295Y-124563237D01*
X120074295Y-124563237D02*
X120121914Y-124658475D01*
X120121914Y-124658475D02*
X120169533Y-124706094D01*
X120169533Y-124706094D02*
X120264771Y-124753713D01*
D12*
X126926588Y-143356000D02*
X126472460Y-143356000D01*
X126926588Y-141886000D02*
X126472460Y-141886000D01*
X112645524Y-129005064D02*
X112645524Y-128550936D01*
X114115524Y-129005064D02*
X114115524Y-128550936D01*
X107260524Y-134112000D02*
G75*
G03*
X107260524Y-134112000I-1500000J0D01*
G01*
X107260524Y-139065000D02*
G75*
G03*
X107260524Y-139065000I-1500000J0D01*
G01*
X121535524Y-141054064D02*
X121535524Y-140599936D01*
X123005524Y-141054064D02*
X123005524Y-140599936D01*
X138235000Y-138166000D02*
X138235000Y-133096000D01*
X138235000Y-138166000D02*
X128465000Y-138166000D01*
X138235000Y-133096000D02*
X128465000Y-133096000D01*
X128465000Y-138166000D02*
X128465000Y-133096000D01*
X119503524Y-116289064D02*
X119503524Y-115834936D01*
X120973524Y-116289064D02*
X120973524Y-115834936D01*
X112521044Y-134238748D02*
X112521044Y-134761252D01*
X111051044Y-134238748D02*
X111051044Y-134761252D01*
X118462524Y-121974733D02*
X118462524Y-122267267D01*
X117442524Y-121974733D02*
X117442524Y-122267267D01*
X160495524Y-114726767D02*
X160495524Y-114434233D01*
X161515524Y-114726767D02*
X161515524Y-114434233D01*
X118560524Y-111532936D02*
X118560524Y-111987064D01*
X117090524Y-111532936D02*
X117090524Y-111987064D01*
X154777044Y-130981000D02*
X154777044Y-133881000D01*
X156682044Y-129076000D02*
X159582044Y-129076000D01*
X156682044Y-135786000D02*
X159582044Y-135786000D01*
X161487044Y-130981000D02*
X161487044Y-133881000D01*
X111051044Y-140761252D02*
X111051044Y-140238748D01*
X112521044Y-140761252D02*
X112521044Y-140238748D01*
X109856044Y-106120000D02*
X111186044Y-106120000D01*
X112456044Y-106120000D02*
X160776044Y-106120000D01*
X109856044Y-104790000D02*
X109856044Y-106120000D01*
X109856044Y-103520000D02*
X112456044Y-103520000D01*
X112456044Y-103520000D02*
X112456044Y-106120000D01*
X109856044Y-100920000D02*
X109856044Y-103520000D01*
X109856044Y-100920000D02*
X160776044Y-100920000D01*
X160776044Y-100920000D02*
X160776044Y-106120000D01*
X120516044Y-135730000D02*
X120246044Y-135730000D01*
X120246044Y-135730000D02*
X120246044Y-132900000D01*
X113886044Y-135730000D02*
X113886044Y-134630000D01*
X113616044Y-135730000D02*
X113886044Y-135730000D01*
X120516044Y-142150000D02*
X120516044Y-135730000D01*
X113616044Y-142150000D02*
X113616044Y-135730000D01*
X117003524Y-116289064D02*
X117003524Y-115834936D01*
X118473524Y-116289064D02*
X118473524Y-115834936D01*
X119457800Y-111971064D02*
X119457800Y-111516936D01*
X120927800Y-111971064D02*
X120927800Y-111516936D01*
D13*
X123086044Y-107500000D02*
X158486044Y-107500000D01*
X123086044Y-125500000D02*
X123086044Y-107500000D01*
X123086044Y-125500000D02*
X158486044Y-125500000D01*
X158486044Y-125500000D02*
X158486044Y-107500000D01*
D12*
X96986044Y-107700000D02*
X111686044Y-107700000D01*
X96986044Y-116900000D02*
X96986044Y-107700000D01*
X105786044Y-116900000D02*
X96986044Y-116900000D01*
X110836044Y-107500000D02*
X111886044Y-107500000D01*
X111686044Y-107700000D02*
X111686044Y-110300000D01*
X111686044Y-114200000D02*
X111686044Y-116900000D01*
X111686044Y-116900000D02*
X109786044Y-116900000D01*
X111886044Y-108550000D02*
X111886044Y-107500000D01*
X162495524Y-114726767D02*
X162495524Y-114434233D01*
X163515524Y-114726767D02*
X163515524Y-114434233D01*
D14*
X113380524Y-125529000D02*
X113380524Y-125529000D01*
X113380524Y-125429000D02*
X113380524Y-125429000D01*
D11*
X112580524Y-123429000D02*
X112580524Y-121829000D01*
X114180524Y-123429000D02*
X114180524Y-121829000D01*
D14*
X113380524Y-125429000D02*
G75*
G03*
X113380524Y-125529000I0J-50000D01*
G01*
X113380524Y-125529000D02*
G75*
G03*
X113380524Y-125429000I0J50000D01*
G01*
D12*
X123932460Y-135663000D02*
X124386588Y-135663000D01*
X123932460Y-137133000D02*
X124386588Y-137133000D01*
X166029524Y-136960000D02*
X164109524Y-136960000D01*
X164109524Y-136960000D02*
X164109524Y-139820000D01*
X166029524Y-139820000D02*
X166029524Y-136960000D01*
X107286044Y-123952000D02*
G75*
G03*
X107286044Y-123952000I-1500000J0D01*
G01*
X120621524Y-122001233D02*
X120621524Y-122293767D01*
X119601524Y-122001233D02*
X119601524Y-122293767D01*
X107286044Y-129000000D02*
G75*
G03*
X107286044Y-129000000I-1500000J0D01*
G01*
G36*
X148876542Y-129934657D02*
G01*
X148977522Y-129942715D01*
X149064805Y-129955981D01*
X149097529Y-129963624D01*
X149268464Y-130022218D01*
X149424418Y-130100786D01*
X149564583Y-130197397D01*
X149688150Y-130310119D01*
X149794310Y-130437019D01*
X149882256Y-130576166D01*
X149951178Y-130725628D01*
X150000269Y-130883471D01*
X150028718Y-131047766D01*
X150035718Y-131216578D01*
X150020461Y-131387976D01*
X149982137Y-131560029D01*
X149919938Y-131730803D01*
X149875604Y-131822828D01*
X149844803Y-131875761D01*
X149812526Y-131921989D01*
X149784258Y-131953822D01*
X149779084Y-131958158D01*
X149728324Y-131984730D01*
X149670734Y-131996255D01*
X149616340Y-131991478D01*
X149591720Y-131981619D01*
X149563587Y-131956993D01*
X149538295Y-131921204D01*
X149534773Y-131914299D01*
X149520966Y-131860225D01*
X149530673Y-131803443D01*
X149564446Y-131741666D01*
X149581950Y-131718569D01*
X149619757Y-131662946D01*
X149658721Y-131590901D01*
X149694508Y-131511519D01*
X149722784Y-131433887D01*
X149730612Y-131406911D01*
X149743541Y-131335651D01*
X149750447Y-131248163D01*
X149751314Y-131153606D01*
X149746128Y-131061143D01*
X149734874Y-130979934D01*
X149731320Y-130963357D01*
X149715715Y-130910514D01*
X149691732Y-130845340D01*
X149663421Y-130778447D01*
X149649121Y-130748103D01*
X149619795Y-130691302D01*
X149591493Y-130644784D01*
X149559005Y-130601590D01*
X149517121Y-130554759D01*
X149463551Y-130500234D01*
X149345555Y-130395880D01*
X149225104Y-130316205D01*
X149098915Y-130259812D01*
X148963705Y-130225301D01*
X148816191Y-130211274D01*
X148784241Y-130210801D01*
X148642002Y-130218786D01*
X148513822Y-130244801D01*
X148393179Y-130290844D01*
X148273549Y-130358913D01*
X148251063Y-130374042D01*
X148179658Y-130414350D01*
X148117878Y-130430413D01*
X148065707Y-130422231D01*
X148023132Y-130389806D01*
X148018411Y-130383953D01*
X148001601Y-130341978D01*
X148004628Y-130290804D01*
X148025505Y-130235531D01*
X148062244Y-130181259D01*
X148112857Y-130133085D01*
X148117621Y-130129518D01*
X148184821Y-130086526D01*
X148268020Y-130042729D01*
X148357653Y-130002548D01*
X148444157Y-129970402D01*
X148492307Y-129956374D01*
X148569748Y-129942665D01*
X148664822Y-129934538D01*
X148769698Y-129931900D01*
X148876542Y-129934657D01*
G37*
G36*
X148906208Y-129100169D02*
G01*
X149011273Y-129105698D01*
X149102266Y-129114513D01*
X149149712Y-129121819D01*
X149343728Y-129169148D01*
X149540846Y-129238366D01*
X149734969Y-129326942D01*
X149920003Y-129432349D01*
X149959097Y-129457685D01*
X150050706Y-129525222D01*
X150149885Y-129610039D01*
X150251312Y-129706732D01*
X150349668Y-129809897D01*
X150439631Y-129914131D01*
X150515880Y-130014028D01*
X150536432Y-130044071D01*
X150654086Y-130241579D01*
X150748097Y-130444319D01*
X150820913Y-130657901D01*
X150846355Y-130754626D01*
X150854299Y-130790813D01*
X150860422Y-130828082D01*
X150864948Y-130870431D01*
X150868106Y-130921857D01*
X150870121Y-130986360D01*
X150871221Y-131067936D01*
X150871632Y-131170584D01*
X150871654Y-131200588D01*
X150871205Y-131321024D01*
X150869689Y-131418660D01*
X150866957Y-131496770D01*
X150862864Y-131558630D01*
X150857260Y-131607514D01*
X150851981Y-131637620D01*
X150802881Y-131822821D01*
X150733174Y-132009797D01*
X150646404Y-132190446D01*
X150546114Y-132356671D01*
X150522443Y-132390703D01*
X150480471Y-132447679D01*
X150447429Y-132487348D01*
X150418471Y-132514560D01*
X150388751Y-132534169D01*
X150369486Y-132543862D01*
X150296201Y-132568852D01*
X150233315Y-132570452D01*
X150197559Y-132558995D01*
X150172116Y-132537210D01*
X150153298Y-132507019D01*
X150144937Y-132466558D01*
X150152662Y-132420262D01*
X150177670Y-132364847D01*
X150221155Y-132297031D01*
X150238546Y-132273015D01*
X150300660Y-132180432D01*
X150363181Y-132071989D01*
X150421098Y-131957349D01*
X150469396Y-131846172D01*
X150491697Y-131785078D01*
X150549093Y-131573460D01*
X150581500Y-131361485D01*
X150589619Y-131150926D01*
X150574150Y-130943555D01*
X150535794Y-130741143D01*
X150475251Y-130545463D01*
X150393223Y-130358286D01*
X150290409Y-130181386D01*
X150167511Y-130016533D01*
X150025230Y-129865500D01*
X149864265Y-129730059D01*
X149685318Y-129611982D01*
X149617688Y-129574622D01*
X149428874Y-129489790D01*
X149231408Y-129428250D01*
X149027954Y-129389787D01*
X148821173Y-129374184D01*
X148613728Y-129381224D01*
X148408281Y-129410691D01*
X148207496Y-129462367D01*
X148014033Y-129536037D01*
X147830557Y-129631483D01*
X147680906Y-129732233D01*
X147608278Y-129781761D01*
X147547729Y-129810354D01*
X147496296Y-129818392D01*
X147451014Y-129806257D01*
X147408918Y-129774331D01*
X147402839Y-129768014D01*
X147379337Y-129726010D01*
X147380524Y-129677675D01*
X147405929Y-129623587D01*
X147455080Y-129564326D01*
X147527508Y-129500471D01*
X147622741Y-129432599D01*
X147727951Y-129368335D01*
X147917441Y-129272102D01*
X148117454Y-129195420D01*
X148332417Y-129136672D01*
X148402867Y-129121832D01*
X148478406Y-129110926D01*
X148573169Y-129103307D01*
X148680496Y-129098974D01*
X148793729Y-129097928D01*
X148906208Y-129100169D01*
G37*
G36*
X145738433Y-130645047D02*
G01*
X145861990Y-130769694D01*
X145997961Y-130906836D01*
X146142053Y-131052143D01*
X146289971Y-131201287D01*
X146437423Y-131349939D01*
X146580114Y-131493769D01*
X146713750Y-131628450D01*
X146834039Y-131749651D01*
X146852639Y-131768389D01*
X146950848Y-131867426D01*
X147043660Y-131961217D01*
X147129425Y-132048081D01*
X147206492Y-132126339D01*
X147273213Y-132194309D01*
X147327937Y-132250312D01*
X147369015Y-132292667D01*
X147394797Y-132319695D01*
X147403531Y-132329478D01*
X147413087Y-132326423D01*
X147436738Y-132308340D01*
X147475038Y-132274703D01*
X147528543Y-132224986D01*
X147597807Y-132158662D01*
X147683386Y-132075206D01*
X147785834Y-131974091D01*
X147905708Y-131854791D01*
X147929881Y-131830643D01*
X148445710Y-131315084D01*
X148424471Y-131252752D01*
X148410579Y-131185279D01*
X148409403Y-131141479D01*
X148693112Y-131141479D01*
X148704177Y-131195228D01*
X148733679Y-131236281D01*
X148776081Y-131262231D01*
X148825842Y-131270673D01*
X148877424Y-131259199D01*
X148912929Y-131236964D01*
X148950036Y-131191602D01*
X148961968Y-131139499D01*
X148949271Y-131082986D01*
X148918578Y-131036670D01*
X148877166Y-131009761D01*
X148830312Y-131001055D01*
X148783294Y-131009347D01*
X148741388Y-131033432D01*
X148709873Y-131072104D01*
X148694024Y-131124160D01*
X148693112Y-131141479D01*
X148409403Y-131141479D01*
X148408494Y-131107615D01*
X148417653Y-131030958D01*
X148437496Y-130966509D01*
X148438975Y-130963357D01*
X148472289Y-130911874D01*
X148521668Y-130856892D01*
X148579450Y-130805771D01*
X148637977Y-130765874D01*
X148652375Y-130758247D01*
X148688879Y-130742869D01*
X148726988Y-130733786D01*
X148775285Y-130729574D01*
X148830092Y-130728758D01*
X148913114Y-130733161D01*
X148979557Y-130748373D01*
X149037775Y-130777932D01*
X149096117Y-130825381D01*
X149124824Y-130853704D01*
X149187386Y-130934926D01*
X149226304Y-131023602D01*
X149241745Y-131116526D01*
X149233880Y-131210490D01*
X149202876Y-131302286D01*
X149148903Y-131388707D01*
X149093535Y-131447990D01*
X149010159Y-131508731D01*
X148920376Y-131545703D01*
X148827028Y-131558249D01*
X148732957Y-131545714D01*
X148706158Y-131537368D01*
X148672146Y-131525635D01*
X148650438Y-131518650D01*
X148646934Y-131517800D01*
X148637384Y-131526861D01*
X148611288Y-131552916D01*
X148570311Y-131594272D01*
X148516117Y-131649238D01*
X148450371Y-131716121D01*
X148374736Y-131793230D01*
X148290877Y-131878872D01*
X148200457Y-131971354D01*
X148144822Y-132028324D01*
X147646472Y-132538849D01*
X148773156Y-133666481D01*
X149899840Y-134794112D01*
X149795475Y-134892892D01*
X149669424Y-135003559D01*
X149524907Y-135115680D01*
X149368824Y-135224598D01*
X149208075Y-135325657D01*
X149049558Y-135414202D01*
X148950607Y-135463016D01*
X148679617Y-135574703D01*
X148399191Y-135662480D01*
X148108417Y-135726604D01*
X147897666Y-135757619D01*
X147833173Y-135762952D01*
X147748529Y-135766572D01*
X147649615Y-135768535D01*
X147542313Y-135768897D01*
X147432503Y-135767714D01*
X147326065Y-135765042D01*
X147228881Y-135760937D01*
X147146831Y-135755455D01*
X147095012Y-135749977D01*
X146801075Y-135697411D01*
X146516849Y-135620678D01*
X146242853Y-135520030D01*
X145979605Y-135395719D01*
X145727625Y-135247996D01*
X145487431Y-135077114D01*
X145259542Y-134883325D01*
X145206697Y-134833396D01*
X145002480Y-134618778D01*
X144819825Y-134389725D01*
X144659178Y-134147130D01*
X144520984Y-133891885D01*
X144405690Y-133624882D01*
X144313742Y-133347015D01*
X144245587Y-133059174D01*
X144210944Y-132841944D01*
X144201196Y-132739150D01*
X144195252Y-132618094D01*
X144192980Y-132485156D01*
X144193832Y-132392081D01*
X144753786Y-132392081D01*
X144756668Y-132562284D01*
X144767323Y-132729586D01*
X144785498Y-132885198D01*
X144797982Y-132959351D01*
X144861004Y-133223168D01*
X144947615Y-133475864D01*
X145057689Y-133717197D01*
X145191098Y-133946922D01*
X145347716Y-134164797D01*
X145527417Y-134370578D01*
X145540220Y-134383867D01*
X145730324Y-134561397D01*
X145937129Y-134719570D01*
X146158983Y-134857574D01*
X146394235Y-134974599D01*
X146641234Y-135069832D01*
X146898329Y-135142464D01*
X147163868Y-135191683D01*
X147192855Y-135195548D01*
X147263943Y-135201962D01*
X147354286Y-135206046D01*
X147457161Y-135207856D01*
X147565839Y-135207448D01*
X147673597Y-135204878D01*
X147773707Y-135200202D01*
X147859444Y-135193477D01*
X147892139Y-135189719D01*
X148159029Y-135142156D01*
X148417994Y-135070752D01*
X148666477Y-134976253D01*
X148742319Y-134941751D01*
X148807387Y-134909938D01*
X148875510Y-134874966D01*
X148940889Y-134839976D01*
X148997727Y-134808110D01*
X149040227Y-134782510D01*
X149056170Y-134771661D01*
X149047505Y-134762268D01*
X149021233Y-134735289D01*
X148978206Y-134691577D01*
X148919274Y-134631989D01*
X148845289Y-134557377D01*
X148757103Y-134468597D01*
X148655566Y-134366503D01*
X148541529Y-134251950D01*
X148415844Y-134125791D01*
X148279363Y-133988882D01*
X148132935Y-133842077D01*
X147977413Y-133686230D01*
X147813648Y-133522197D01*
X147642491Y-133350830D01*
X147464793Y-133172986D01*
X147281406Y-132989518D01*
X147127473Y-132835571D01*
X146940022Y-132648166D01*
X146757496Y-132465753D01*
X146580748Y-132289182D01*
X146410633Y-132119305D01*
X146248006Y-131956972D01*
X146093722Y-131803035D01*
X145948634Y-131658346D01*
X145813597Y-131523755D01*
X145689467Y-131400113D01*
X145577096Y-131288273D01*
X145477340Y-131189084D01*
X145391054Y-131103398D01*
X145319091Y-131032067D01*
X145262307Y-130975941D01*
X145221555Y-130935872D01*
X145197691Y-130912711D01*
X145191324Y-130906932D01*
X145163302Y-130949840D01*
X145128069Y-131011617D01*
X145088233Y-131086958D01*
X145046401Y-131170556D01*
X145005180Y-131257108D01*
X144967177Y-131341308D01*
X144934998Y-131417851D01*
X144916766Y-131465617D01*
X144879937Y-131579469D01*
X144844514Y-131709683D01*
X144812788Y-131846542D01*
X144787048Y-131980331D01*
X144772370Y-132078126D01*
X144758935Y-132227766D01*
X144753786Y-132392081D01*
X144193832Y-132392081D01*
X144194248Y-132346714D01*
X144198925Y-132209148D01*
X144206878Y-132078838D01*
X144217976Y-131962163D01*
X144230965Y-131871709D01*
X144294854Y-131583295D01*
X144382056Y-131303674D01*
X144491749Y-131034517D01*
X144623113Y-130777495D01*
X144775325Y-130534276D01*
X144947563Y-130306533D01*
X145068549Y-130169002D01*
X145164597Y-130066070D01*
X145738433Y-130645047D01*
G37*
%LPC*%
D15*
X127699524Y-142621000D03*
X125699524Y-142621000D03*
D16*
X113380524Y-129778000D03*
X113380524Y-127778000D03*
D17*
X105760524Y-134112000D03*
X105760524Y-139065000D03*
D16*
X122270524Y-141827000D03*
X122270524Y-139827000D03*
D18*
X130810000Y-135636000D03*
X133350000Y-135636000D03*
X135890000Y-135636000D03*
D16*
X120238524Y-117062000D03*
X120238524Y-115062000D03*
D19*
X111786044Y-133462500D03*
X111786044Y-135537500D03*
D20*
X117952524Y-121258500D03*
X117952524Y-122983500D03*
D21*
X161005524Y-115443000D03*
X161005524Y-113718000D03*
D22*
X117825524Y-110760000D03*
X117825524Y-112760000D03*
D23*
X158132044Y-132431000D03*
D24*
X155592044Y-129891000D03*
X155592044Y-134971000D03*
X160672044Y-129891000D03*
X160672044Y-134971000D03*
D25*
X111786044Y-141537500D03*
X111786044Y-139462500D03*
D26*
X162261044Y-103500000D03*
X162854153Y-102068109D03*
X162854153Y-104931891D03*
X164286044Y-101475000D03*
D27*
X164286044Y-103500000D03*
D26*
X164286044Y-105525000D03*
X165717935Y-102068109D03*
X165717935Y-104931891D03*
X166311044Y-103500000D03*
D28*
X111186044Y-104790000D03*
D29*
X111186044Y-102250000D03*
X113726044Y-104790000D03*
X113726044Y-102250000D03*
X116266044Y-104790000D03*
X116266044Y-102250000D03*
X118806044Y-104790000D03*
X118806044Y-102250000D03*
X121346044Y-104790000D03*
X121346044Y-102250000D03*
X123886044Y-104790000D03*
X123886044Y-102250000D03*
X126426044Y-104790000D03*
X126426044Y-102250000D03*
X128966044Y-104790000D03*
X128966044Y-102250000D03*
X131506044Y-104790000D03*
X131506044Y-102250000D03*
X134046044Y-104790000D03*
X134046044Y-102250000D03*
X136586044Y-104790000D03*
X136586044Y-102250000D03*
X139126044Y-104790000D03*
X139126044Y-102250000D03*
X141666044Y-104790000D03*
X141666044Y-102250000D03*
X144206044Y-104790000D03*
X144206044Y-102250000D03*
X146746044Y-104790000D03*
X146746044Y-102250000D03*
X149286044Y-104790000D03*
X149286044Y-102250000D03*
X151826044Y-104790000D03*
X151826044Y-102250000D03*
X154366044Y-104790000D03*
X154366044Y-102250000D03*
X156906044Y-104790000D03*
X156906044Y-102250000D03*
X159446044Y-104790000D03*
X159446044Y-102250000D03*
D30*
X119346044Y-134000000D03*
D31*
X117066044Y-140300000D03*
D30*
X114786044Y-134000000D03*
D16*
X117738524Y-117062000D03*
X117738524Y-115062000D03*
X120192800Y-112744000D03*
X120192800Y-110744000D03*
D32*
X158386044Y-123500000D03*
X158386044Y-121500000D03*
X158386044Y-119500000D03*
X158386044Y-117500000D03*
X158386044Y-115500000D03*
X158386044Y-113500000D03*
X158386044Y-111500000D03*
X158386044Y-109500000D03*
X123386044Y-109500000D03*
X123386044Y-111500000D03*
X123386044Y-113500000D03*
X123386044Y-115500000D03*
X123386044Y-117500000D03*
X123386044Y-119500000D03*
X123386044Y-121500000D03*
X123386044Y-123500000D03*
D33*
X143818544Y-114750000D03*
D34*
X110786044Y-112300000D03*
D35*
X104786044Y-112300000D03*
D36*
X107786044Y-117000000D03*
D21*
X163005524Y-115443000D03*
X163005524Y-113718000D03*
D37*
X113380524Y-124354000D03*
X113380524Y-120904000D03*
D38*
X123159524Y-136398000D03*
X125159524Y-136398000D03*
D39*
X165069524Y-137795000D03*
X165069524Y-139845000D03*
D17*
X105786044Y-123952000D03*
D20*
X120111524Y-121285000D03*
X120111524Y-123010000D03*
D17*
X105786044Y-129000000D03*
D26*
X104261044Y-103500000D03*
X104854153Y-102068109D03*
X104854153Y-104931891D03*
X106286044Y-101475000D03*
D27*
X106286044Y-103500000D03*
D26*
X106286044Y-105525000D03*
X107717935Y-102068109D03*
X107717935Y-104931891D03*
X108311044Y-103500000D03*
%LPD*%
M02*
